<?xml version="1.0" encoding="utf-8" standalone="no"?><!DOCTYPE svg PUBLIC "-//W3C//DTD SVG 1.1//EN" "http://www.w3.org/Graphics/SVG/1.1/DTD/svg11.dtd">
<svg preserveAspectRatio="xMinYMin meet" width="100%" height="100%" viewBox="0 0 560.000 420.000"  version="1.1" xmlns="http://www.w3.org/2000/svg" xmlns:xlink="http://www.w3.org/1999/xlink">
  <desc>Matlab Figure Converted by PLOT2SVG written by Juerg Schwizer</desc>
  <g id="topgroup">
  <rect x="0" y="0" width="560.000" height="420.000" fill="#ffffff" stroke="none" />
  <g id ="ID000000">
  <clipPath id="ID000001">
    <rect x="72.800" y="31.500" width="434.000" height="342.300"/>
  </clipPath>
      <polygon fill="#ffffff" fill-opacity="1.00" stroke="none" stroke-width="0.5pt" stroke-opacity="1.00" stroke-dasharray="none" points="72.800,373.800 506.800,373.800 506.800,31.500 72.800,31.500 "/>
      <polygon fill="#ffffff" fill-opacity="1.00" stroke="none" stroke-width="0.5pt" stroke-opacity="1.00" stroke-dasharray="none" points="72.800,31.500 506.800,31.500 506.800,31.500 72.800,31.500 "/>
      <polygon fill="#ffffff" fill-opacity="1.00" stroke="none" stroke-width="0.5pt" stroke-opacity="1.00" stroke-dasharray="none" points="72.800,373.800 72.800,373.800 72.800,31.500 72.800,31.500 "/>
    <g>
<g id="ID000002" clip-path="url(#ID000001)" >
      <polyline fill="none" stroke="#ff0000" stroke-width="0.5pt" stroke-dasharray="none" points="81.480,74.697 90.160,63.319 98.840,57.631 107.520,54.082 116.200,53.607 124.880,49.322 133.560,49.018 142.240,49.486 150.920,51.017 159.600,51.419 168.280,51.546 176.960,52.424 185.640,52.842 194.320,53.652 203.000,54.728 211.680,54.996 220.360,56.086 229.040,56.834 237.720,57.432 246.400,57.982 255.080,61.899 263.760,65.988 272.440,123.317 281.120,150.644 289.800,165.594 298.480,178.871 307.160,189.187 315.840,198.499 324.520,208.568 333.200,218.969 341.880,228.869 350.560,238.885 359.240,248.911 367.920,258.926 376.600,269.013 385.280,279.158 393.960,289.175 402.640,299.002 411.320,310.169 420.000,319.504 428.680,326.243 437.360,331.524 446.040,333.208 454.720,327.244 463.400,302.024 472.080,243.559 "/>
<g>
</g>
</g>
<g id="ID000003" >
  <g transform="translate(289.300,21.493)">
    <g transform="rotate(-0.0)">
      <text x="0.000" y="0.000" font-family="Helvetica" text-anchor="middle" font-size="10pt" fill="#000000" >Missing Link Erros</text>
    </g>
  </g>
</g>
<g id="ID000004" >
  <g transform="translate(289.300,408.822)">
    <g transform="rotate(-0.0)">
      <text x="0.000" y="0.000" font-family="Helvetica" text-anchor="middle" font-size="10pt" fill="#000000" >Transmission Range</text>
    </g>
  </g>
</g>
<g id="ID000005" >
  <g transform="translate(42.800,204.151)">
    <g transform="rotate(-90.0)">
      <text x="0.000" y="0.000" font-family="Helvetica" text-anchor="middle" font-size="10pt" fill="#000000" >Error in %</text>
    </g>
  </g>
</g>
<g id="ID000006" clip-path="url(#ID000001)" >
      <polyline fill="none" stroke="#ff9900" stroke-width="0.5pt" stroke-dasharray="none" points="81.480,78.312 90.160,65.654 98.840,59.194 107.520,56.603 116.200,56.452 124.880,55.355 133.560,55.945 142.240,56.087 150.920,56.474 159.600,57.206 168.280,57.585 176.960,58.764 185.640,59.876 194.320,61.056 203.000,62.117 211.680,63.776 220.360,65.106 229.040,66.658 237.720,67.483 246.400,68.212 255.080,74.317 263.760,80.884 272.440,85.565 281.120,90.878 289.800,96.249 298.480,157.892 307.160,181.751 315.840,195.742 324.520,206.510 333.200,218.104 341.880,227.836 350.560,236.941 359.240,245.804 367.920,256.547 376.600,269.726 385.280,283.136 393.960,294.259 402.640,302.735 411.320,310.466 420.000,317.118 428.680,324.011 437.360,328.728 446.040,329.401 454.720,325.306 463.400,314.106 472.080,240.072 "/>
<g>
</g>
</g>
<g id="ID000007" clip-path="url(#ID000001)" >
      <polyline fill="none" stroke="#cbff00" stroke-width="0.5pt" stroke-dasharray="none" points="81.480,83.749 90.160,71.826 98.840,66.750 107.520,64.895 116.200,65.765 124.880,63.026 133.560,64.087 142.240,65.445 150.920,67.043 159.600,68.279 168.280,68.968 176.960,69.830 185.640,71.208 194.320,72.753 203.000,74.042 211.680,74.854 220.360,76.058 229.040,78.071 237.720,79.104 246.400,80.806 255.080,85.850 263.760,91.383 272.440,95.851 281.120,101.420 289.800,107.531 298.480,112.811 307.160,119.792 315.840,182.621 324.520,205.047 333.200,218.461 341.880,228.523 350.560,240.227 359.240,252.565 367.920,262.820 376.600,271.820 385.280,279.670 393.960,287.242 402.640,294.151 411.320,302.416 420.000,309.347 428.680,315.300 437.360,320.219 446.040,324.792 454.720,344.353 463.400,314.052 472.080,239.897 "/>
<g>
</g>
</g>
<g id="ID000008" clip-path="url(#ID000001)" >
      <polyline fill="none" stroke="#33ff00" stroke-width="0.5pt" stroke-dasharray="none" points="81.480,91.996 90.160,79.383 98.840,74.219 107.520,74.375 116.200,74.161 124.880,71.129 133.560,72.334 142.240,73.276 150.920,74.958 159.600,76.178 168.280,77.725 176.960,78.485 185.640,79.767 194.320,80.551 203.000,82.059 211.680,83.013 220.360,84.121 229.040,85.588 237.720,87.301 246.400,88.343 255.080,94.324 263.760,100.320 272.440,106.459 281.120,112.624 289.800,116.966 298.480,122.158 307.160,127.871 315.840,133.625 324.520,144.496 333.200,210.606 341.880,227.478 350.560,238.663 359.240,248.383 367.920,256.299 376.600,263.575 385.280,269.655 393.960,275.637 402.640,281.044 411.320,286.474 420.000,291.706 428.680,296.929 437.360,303.892 446.040,332.992 454.720,330.089 463.400,301.196 472.080,230.885 "/>
<g>
</g>
</g>
<g id="ID000009" clip-path="url(#ID000001)" >
      <polyline fill="none" stroke="#00ff66" stroke-width="0.5pt" stroke-dasharray="none" points="81.480,84.021 90.160,73.440 98.840,66.561 107.520,63.990 116.200,64.711 124.880,61.745 133.560,61.756 142.240,63.531 150.920,65.527 159.600,67.393 168.280,68.447 176.960,70.004 185.640,71.430 194.320,72.458 203.000,74.613 211.680,76.519 220.360,78.399 229.040,79.595 237.720,80.506 246.400,82.304 255.080,91.337 263.760,98.592 272.440,105.511 281.120,111.539 289.800,119.071 298.480,126.475 307.160,135.929 315.840,145.380 324.520,153.043 333.200,159.869 341.880,185.668 350.560,234.339 359.240,246.292 367.920,255.698 376.600,263.693 385.280,269.352 393.960,274.123 402.640,278.641 411.320,283.329 420.000,288.242 428.680,294.585 437.360,326.968 446.040,335.121 454.720,328.304 463.400,297.763 472.080,227.956 "/>
<g>
</g>
</g>
<g id="ID000010" clip-path="url(#ID000001)" >
      <polyline fill="none" stroke="#00ffff" stroke-width="0.5pt" stroke-dasharray="none" points="81.480,94.416 90.160,84.615 98.840,82.157 107.520,82.873 116.200,83.914 124.880,82.835 133.560,83.959 142.240,84.695 150.920,85.788 159.600,87.236 168.280,86.835 176.960,87.298 185.640,87.775 194.320,88.910 203.000,89.944 211.680,90.811 220.360,92.392 229.040,93.530 237.720,94.658 246.400,95.676 255.080,102.438 263.760,108.950 272.440,115.281 281.120,122.586 289.800,133.194 298.480,142.270 307.160,148.817 315.840,154.583 324.520,159.793 333.200,164.905 341.880,170.262 350.560,183.309 359.240,234.785 367.920,245.730 376.600,253.342 385.280,258.727 393.960,262.808 402.640,267.198 411.320,271.590 420.000,277.727 428.680,302.608 437.360,322.927 446.040,325.476 454.720,317.472 463.400,289.529 472.080,224.253 "/>
<g>
</g>
</g>
<g id="ID000011" clip-path="url(#ID000001)" >
      <polyline fill="none" stroke="#0066ff" stroke-width="0.5pt" stroke-dasharray="none" points="81.480,78.790 90.160,66.216 98.840,62.008 107.520,64.612 116.200,64.914 124.880,62.020 133.560,62.474 142.240,63.258 150.920,65.159 159.600,65.875 168.280,66.302 176.960,67.424 185.640,69.626 194.320,70.979 203.000,73.033 211.680,75.271 220.360,77.294 229.040,78.915 237.720,80.619 246.400,81.945 255.080,92.156 263.760,99.965 272.440,109.918 281.120,120.690 289.800,128.843 298.480,137.176 307.160,145.877 315.840,152.819 324.520,158.893 333.200,165.699 341.880,171.264 350.560,178.091 359.240,187.227 367.920,239.848 376.600,253.085 385.280,259.929 393.960,265.971 402.640,271.119 411.320,276.490 420.000,292.069 428.680,327.590 437.360,333.716 446.040,333.996 454.720,325.194 463.400,293.610 472.080,223.872 "/>
<g>
</g>
</g>
<g id="ID000012" clip-path="url(#ID000001)" >
      <polyline fill="none" stroke="#3200ff" stroke-width="0.5pt" stroke-dasharray="none" points="81.480,87.116 90.160,79.109 98.840,78.296 107.520,81.337 116.200,82.617 124.880,82.025 133.560,83.132 142.240,85.748 150.920,86.696 159.600,88.461 168.280,89.539 176.960,90.713 185.640,91.647 194.320,92.063 203.000,93.170 211.680,94.659 220.360,96.816 229.040,97.774 237.720,98.548 246.400,99.929 255.080,112.354 263.760,119.697 272.440,125.441 281.120,130.666 289.800,136.661 298.480,143.267 307.160,149.208 315.840,153.838 324.520,158.208 333.200,162.903 341.880,167.028 350.560,171.375 359.240,176.618 367.920,184.905 376.600,222.752 385.280,237.322 393.960,245.078 402.640,251.999 411.320,267.358 420.000,297.834 428.680,306.518 437.360,311.577 446.040,311.905 454.720,304.181 463.400,277.394 472.080,214.627 "/>
<g>
</g>
</g>
<g id="ID000013" clip-path="url(#ID000001)" >
      <polyline fill="none" stroke="#cc00ff" stroke-width="0.5pt" stroke-dasharray="none" points="81.480,77.292 90.160,70.937 98.840,67.898 107.520,70.037 116.200,71.422 124.880,68.788 133.560,69.152 142.240,70.085 150.920,72.272 159.600,73.400 168.280,74.290 176.960,76.542 185.640,79.077 194.320,80.746 203.000,81.981 211.680,83.264 220.360,84.388 229.040,87.625 237.720,89.364 246.400,91.802 255.080,100.552 263.760,108.475 272.440,114.443 281.120,121.738 289.800,128.917 298.480,136.523 307.160,143.688 315.840,150.563 324.520,158.727 333.200,165.156 341.880,172.016 350.560,177.699 359.240,184.886 367.920,192.381 376.600,201.201 385.280,231.547 393.960,254.193 402.640,269.419 411.320,305.649 420.000,316.032 428.680,322.248 437.360,325.556 446.040,324.115 454.720,314.539 463.400,284.207 472.080,218.943 "/>
<g>
</g>
</g>
<g id="ID000014" clip-path="url(#ID000001)" >
      <polyline fill="none" stroke="#ff0098" stroke-width="0.5pt" stroke-dasharray="none" points="81.480,97.282 90.160,88.298 98.840,83.276 107.520,84.909 116.200,85.757 124.880,81.099 133.560,80.454 142.240,81.017 150.920,83.338 159.600,84.030 168.280,85.252 176.960,86.218 185.640,86.782 194.320,87.608 203.000,88.932 211.680,89.862 220.360,91.598 229.040,92.865 237.720,94.709 246.400,96.227 255.080,101.989 263.760,108.278 272.440,114.980 281.120,121.527 289.800,127.744 298.480,134.286 307.160,140.714 315.840,147.661 324.520,152.777 333.200,157.879 341.880,163.693 350.560,169.065 359.240,173.778 367.920,179.825 376.600,185.928 385.280,194.608 393.960,223.120 402.640,270.874 411.320,280.989 420.000,289.176 428.680,294.990 437.360,299.330 446.040,298.091 454.720,289.716 463.400,262.704 472.080,205.457 "/>
<g>
</g>
</g>
<g id="ID000015" >
</g>
<g id="ID000016" >
</g>
    </g>
    <g>
      <polyline fill="none" stroke="#000000" stroke-width="0.5pt" stroke-dasharray="none" points="81.480,373.800 81.480,369.460 "/>
      <polyline fill="none" stroke="#000000" stroke-width="0.5pt" stroke-dasharray="none" points="98.840,373.800 98.840,369.460 "/>
      <polyline fill="none" stroke="#000000" stroke-width="0.5pt" stroke-dasharray="none" points="116.200,373.800 116.200,369.460 "/>
      <polyline fill="none" stroke="#000000" stroke-width="0.5pt" stroke-dasharray="none" points="133.560,373.800 133.560,369.460 "/>
      <polyline fill="none" stroke="#000000" stroke-width="0.5pt" stroke-dasharray="none" points="150.920,373.800 150.920,369.460 "/>
      <polyline fill="none" stroke="#000000" stroke-width="0.5pt" stroke-dasharray="none" points="168.280,373.800 168.280,369.460 "/>
      <polyline fill="none" stroke="#000000" stroke-width="0.5pt" stroke-dasharray="none" points="185.640,373.800 185.640,369.460 "/>
      <polyline fill="none" stroke="#000000" stroke-width="0.5pt" stroke-dasharray="none" points="203.000,373.800 203.000,369.460 "/>
      <polyline fill="none" stroke="#000000" stroke-width="0.5pt" stroke-dasharray="none" points="220.360,373.800 220.360,369.460 "/>
      <polyline fill="none" stroke="#000000" stroke-width="0.5pt" stroke-dasharray="none" points="237.720,373.800 237.720,369.460 "/>
      <polyline fill="none" stroke="#000000" stroke-width="0.5pt" stroke-dasharray="none" points="255.080,373.800 255.080,369.460 "/>
      <polyline fill="none" stroke="#000000" stroke-width="0.5pt" stroke-dasharray="none" points="272.440,373.800 272.440,369.460 "/>
      <polyline fill="none" stroke="#000000" stroke-width="0.5pt" stroke-dasharray="none" points="289.800,373.800 289.800,369.460 "/>
      <polyline fill="none" stroke="#000000" stroke-width="0.5pt" stroke-dasharray="none" points="307.160,373.800 307.160,369.460 "/>
      <polyline fill="none" stroke="#000000" stroke-width="0.5pt" stroke-dasharray="none" points="324.520,373.800 324.520,369.460 "/>
      <polyline fill="none" stroke="#000000" stroke-width="0.5pt" stroke-dasharray="none" points="341.880,373.800 341.880,369.460 "/>
      <polyline fill="none" stroke="#000000" stroke-width="0.5pt" stroke-dasharray="none" points="359.240,373.800 359.240,369.460 "/>
      <polyline fill="none" stroke="#000000" stroke-width="0.5pt" stroke-dasharray="none" points="376.600,373.800 376.600,369.460 "/>
      <polyline fill="none" stroke="#000000" stroke-width="0.5pt" stroke-dasharray="none" points="393.960,373.800 393.960,369.460 "/>
      <polyline fill="none" stroke="#000000" stroke-width="0.5pt" stroke-dasharray="none" points="411.320,373.800 411.320,369.460 "/>
      <polyline fill="none" stroke="#000000" stroke-width="0.5pt" stroke-dasharray="none" points="428.680,373.800 428.680,369.460 "/>
      <polyline fill="none" stroke="#000000" stroke-width="0.5pt" stroke-dasharray="none" points="446.040,373.800 446.040,369.460 "/>
      <polyline fill="none" stroke="#000000" stroke-width="0.5pt" stroke-dasharray="none" points="463.400,373.800 463.400,369.460 "/>
      <polyline fill="none" stroke="#000000" stroke-width="0.5pt" stroke-dasharray="none" points="72.800,373.800 506.800,373.800 "/>
  <g transform="translate(81.480,392.446)">
    <g transform="rotate(-0.0)">
      <text x="0.000" y="0.000" font-family="Helvetica" text-anchor="middle" font-size="10pt" fill="#000000" >1</text>
    </g>
  </g>
  <g transform="translate(98.840,392.446)">
    <g transform="rotate(-0.0)">
      <text x="0.000" y="0.000" font-family="Helvetica" text-anchor="middle" font-size="10pt" fill="#000000" >3</text>
    </g>
  </g>
  <g transform="translate(116.200,392.446)">
    <g transform="rotate(-0.0)">
      <text x="0.000" y="0.000" font-family="Helvetica" text-anchor="middle" font-size="10pt" fill="#000000" >5</text>
    </g>
  </g>
  <g transform="translate(133.560,392.446)">
    <g transform="rotate(-0.0)">
      <text x="0.000" y="0.000" font-family="Helvetica" text-anchor="middle" font-size="10pt" fill="#000000" >7</text>
    </g>
  </g>
  <g transform="translate(150.920,392.446)">
    <g transform="rotate(-0.0)">
      <text x="0.000" y="0.000" font-family="Helvetica" text-anchor="middle" font-size="10pt" fill="#000000" >9</text>
    </g>
  </g>
  <g transform="translate(168.280,392.446)">
    <g transform="rotate(-0.0)">
      <text x="0.000" y="0.000" font-family="Helvetica" text-anchor="middle" font-size="10pt" fill="#000000" >11</text>
    </g>
  </g>
  <g transform="translate(185.640,392.446)">
    <g transform="rotate(-0.0)">
      <text x="0.000" y="0.000" font-family="Helvetica" text-anchor="middle" font-size="10pt" fill="#000000" >13</text>
    </g>
  </g>
  <g transform="translate(203.000,392.446)">
    <g transform="rotate(-0.0)">
      <text x="0.000" y="0.000" font-family="Helvetica" text-anchor="middle" font-size="10pt" fill="#000000" >15</text>
    </g>
  </g>
  <g transform="translate(220.360,392.446)">
    <g transform="rotate(-0.0)">
      <text x="0.000" y="0.000" font-family="Helvetica" text-anchor="middle" font-size="10pt" fill="#000000" >17</text>
    </g>
  </g>
  <g transform="translate(237.720,392.446)">
    <g transform="rotate(-0.0)">
      <text x="0.000" y="0.000" font-family="Helvetica" text-anchor="middle" font-size="10pt" fill="#000000" >19</text>
    </g>
  </g>
  <g transform="translate(255.080,392.446)">
    <g transform="rotate(-0.0)">
      <text x="0.000" y="0.000" font-family="Helvetica" text-anchor="middle" font-size="10pt" fill="#000000" >25</text>
    </g>
  </g>
  <g transform="translate(272.440,392.446)">
    <g transform="rotate(-0.0)">
      <text x="0.000" y="0.000" font-family="Helvetica" text-anchor="middle" font-size="10pt" fill="#000000" >35</text>
    </g>
  </g>
  <g transform="translate(289.800,392.446)">
    <g transform="rotate(-0.0)">
      <text x="0.000" y="0.000" font-family="Helvetica" text-anchor="middle" font-size="10pt" fill="#000000" >45</text>
    </g>
  </g>
  <g transform="translate(307.160,392.446)">
    <g transform="rotate(-0.0)">
      <text x="0.000" y="0.000" font-family="Helvetica" text-anchor="middle" font-size="10pt" fill="#000000" >55</text>
    </g>
  </g>
  <g transform="translate(324.520,392.446)">
    <g transform="rotate(-0.0)">
      <text x="0.000" y="0.000" font-family="Helvetica" text-anchor="middle" font-size="10pt" fill="#000000" >65</text>
    </g>
  </g>
  <g transform="translate(341.880,392.446)">
    <g transform="rotate(-0.0)">
      <text x="0.000" y="0.000" font-family="Helvetica" text-anchor="middle" font-size="10pt" fill="#000000" >75</text>
    </g>
  </g>
  <g transform="translate(359.240,392.446)">
    <g transform="rotate(-0.0)">
      <text x="0.000" y="0.000" font-family="Helvetica" text-anchor="middle" font-size="10pt" fill="#000000" >85</text>
    </g>
  </g>
  <g transform="translate(376.600,392.446)">
    <g transform="rotate(-0.0)">
      <text x="0.000" y="0.000" font-family="Helvetica" text-anchor="middle" font-size="10pt" fill="#000000" >95</text>
    </g>
  </g>
  <g transform="translate(393.960,392.446)">
    <g transform="rotate(-0.0)">
      <text x="0.000" y="0.000" font-family="Helvetica" text-anchor="middle" font-size="10pt" fill="#000000" >105</text>
    </g>
  </g>
  <g transform="translate(411.320,392.446)">
    <g transform="rotate(-0.0)">
      <text x="0.000" y="0.000" font-family="Helvetica" text-anchor="middle" font-size="10pt" fill="#000000" >115</text>
    </g>
  </g>
  <g transform="translate(428.680,392.446)">
    <g transform="rotate(-0.0)">
      <text x="0.000" y="0.000" font-family="Helvetica" text-anchor="middle" font-size="10pt" fill="#000000" >125</text>
    </g>
  </g>
  <g transform="translate(446.040,392.446)">
    <g transform="rotate(-0.0)">
      <text x="0.000" y="0.000" font-family="Helvetica" text-anchor="middle" font-size="10pt" fill="#000000" >135</text>
    </g>
  </g>
  <g transform="translate(463.400,392.446)">
    <g transform="rotate(-0.0)">
      <text x="0.000" y="0.000" font-family="Helvetica" text-anchor="middle" font-size="10pt" fill="#000000" >145</text>
    </g>
  </g>
      <polyline fill="none" stroke="#000000" stroke-width="0.5pt" stroke-dasharray="none" points="72.800,373.800 77.140,373.800 "/>
      <polyline fill="none" stroke="#000000" stroke-width="0.5pt" stroke-dasharray="none" points="72.800,335.767 77.140,335.767 "/>
      <polyline fill="none" stroke="#000000" stroke-width="0.5pt" stroke-dasharray="none" points="72.800,297.733 77.140,297.733 "/>
      <polyline fill="none" stroke="#000000" stroke-width="0.5pt" stroke-dasharray="none" points="72.800,259.700 77.140,259.700 "/>
      <polyline fill="none" stroke="#000000" stroke-width="0.5pt" stroke-dasharray="none" points="72.800,221.667 77.140,221.667 "/>
      <polyline fill="none" stroke="#000000" stroke-width="0.5pt" stroke-dasharray="none" points="72.800,183.633 77.140,183.633 "/>
      <polyline fill="none" stroke="#000000" stroke-width="0.5pt" stroke-dasharray="none" points="72.800,145.600 77.140,145.600 "/>
      <polyline fill="none" stroke="#000000" stroke-width="0.5pt" stroke-dasharray="none" points="72.800,107.567 77.140,107.567 "/>
      <polyline fill="none" stroke="#000000" stroke-width="0.5pt" stroke-dasharray="none" points="72.800,69.533 77.140,69.533 "/>
      <polyline fill="none" stroke="#000000" stroke-width="0.5pt" stroke-dasharray="none" points="72.800,31.500 77.140,31.500 "/>
      <polyline fill="none" stroke="#000000" stroke-width="0.5pt" stroke-dasharray="none" points="72.800,373.800 72.800,31.500 "/>
  <g transform="translate(64.120,378.300)">
    <g transform="rotate(-0.0)">
      <text x="0.000" y="0.000" font-family="Helvetica" text-anchor="end" font-size="10pt" fill="#000000" >0.1</text>
    </g>
  </g>
  <g transform="translate(64.120,340.267)">
    <g transform="rotate(-0.0)">
      <text x="0.000" y="0.000" font-family="Helvetica" text-anchor="end" font-size="10pt" fill="#000000" >0.2</text>
    </g>
  </g>
  <g transform="translate(64.120,302.233)">
    <g transform="rotate(-0.0)">
      <text x="0.000" y="0.000" font-family="Helvetica" text-anchor="end" font-size="10pt" fill="#000000" >0.3</text>
    </g>
  </g>
  <g transform="translate(64.120,264.200)">
    <g transform="rotate(-0.0)">
      <text x="0.000" y="0.000" font-family="Helvetica" text-anchor="end" font-size="10pt" fill="#000000" >0.4</text>
    </g>
  </g>
  <g transform="translate(64.120,226.167)">
    <g transform="rotate(-0.0)">
      <text x="0.000" y="0.000" font-family="Helvetica" text-anchor="end" font-size="10pt" fill="#000000" >0.5</text>
    </g>
  </g>
  <g transform="translate(64.120,188.133)">
    <g transform="rotate(-0.0)">
      <text x="0.000" y="0.000" font-family="Helvetica" text-anchor="end" font-size="10pt" fill="#000000" >0.6</text>
    </g>
  </g>
  <g transform="translate(64.120,150.100)">
    <g transform="rotate(-0.0)">
      <text x="0.000" y="0.000" font-family="Helvetica" text-anchor="end" font-size="10pt" fill="#000000" >0.7</text>
    </g>
  </g>
  <g transform="translate(64.120,112.067)">
    <g transform="rotate(-0.0)">
      <text x="0.000" y="0.000" font-family="Helvetica" text-anchor="end" font-size="10pt" fill="#000000" >0.8</text>
    </g>
  </g>
  <g transform="translate(64.120,74.033)">
    <g transform="rotate(-0.0)">
      <text x="0.000" y="0.000" font-family="Helvetica" text-anchor="end" font-size="10pt" fill="#000000" >0.9</text>
    </g>
  </g>
  <g transform="translate(64.120,36.000)">
    <g transform="rotate(-0.0)">
      <text x="0.000" y="0.000" font-family="Helvetica" text-anchor="end" font-size="10pt" fill="#000000" >1</text>
    </g>
  </g>
      <polyline fill="none" stroke="#000000" stroke-width="0.5pt" stroke-dasharray="none" points="72.800,373.800 72.800,370.377 "/>
      <polyline fill="none" stroke="#000000" stroke-width="0.5pt" stroke-dasharray="none" points="72.800,373.800 72.800,370.377 "/>
      <polyline fill="none" stroke="#000000" stroke-width="0.5pt" stroke-dasharray="none" points="72.800,373.800 72.800,370.377 "/>
      <polyline fill="none" stroke="#000000" stroke-width="0.5pt" stroke-dasharray="none" points="72.800,373.800 72.800,373.800 "/>
    </g>
  </g>
  <g id ="ID000017">
  <clipPath id="ID000018">
    <rect x="373.750" y="38.750" width="128.500" height="210.625"/>
  </clipPath>
      <polygon fill="#ffffff" fill-opacity="1.00" stroke="none" stroke-width="0.5pt" stroke-opacity="1.00" stroke-dasharray="none" points="373.750,249.375 502.250,249.375 502.250,38.750 373.750,38.750 "/>
      <polygon fill="#ffffff" fill-opacity="1.00" stroke="none" stroke-width="0.5pt" stroke-opacity="1.00" stroke-dasharray="none" points="373.750,38.750 502.250,38.750 502.250,38.750 373.750,38.750 "/>
      <polygon fill="#ffffff" fill-opacity="1.00" stroke="none" stroke-width="0.5pt" stroke-opacity="1.00" stroke-dasharray="none" points="373.750,249.375 373.750,249.375 373.750,38.750 373.750,38.750 "/>
    <g>
<g id="ID000019" >
  <g transform="translate(423.443,56.790)">
    <g transform="rotate(-0.0)">
      <text x="0.000" y="0.000" font-family="Helvetica" text-anchor="start" font-size="10pt" fill="#000000" >Percentile 0</text>
    </g>
  </g>
</g>
<g id="ID000020" clip-path="url(#ID000018)" >
      <polyline fill="none" stroke="#ff0000" stroke-width="0.5pt" stroke-dasharray="none" points="381.250,51.250 418.750,51.250 "/>
<g>
</g>
</g>
<g id="ID000021" clip-path="url(#ID000018)" >
<g>
</g>
</g>
<g id="ID000022" >
  <g transform="translate(423.443,76.850)">
    <g transform="rotate(-0.0)">
      <text x="0.000" y="0.000" font-family="Helvetica" text-anchor="start" font-size="10pt" fill="#000000" >Percentile 5</text>
    </g>
  </g>
</g>
<g id="ID000023" clip-path="url(#ID000018)" >
      <polyline fill="none" stroke="#ff9900" stroke-width="0.5pt" stroke-dasharray="none" points="381.250,71.875 418.750,71.875 "/>
<g>
</g>
</g>
<g id="ID000024" clip-path="url(#ID000018)" >
<g>
</g>
</g>
<g id="ID000025" >
  <g transform="translate(423.443,97.912)">
    <g transform="rotate(-0.0)">
      <text x="0.000" y="0.000" font-family="Helvetica" text-anchor="start" font-size="10pt" fill="#000000" >Percentile 10</text>
    </g>
  </g>
</g>
<g id="ID000026" clip-path="url(#ID000018)" >
      <polyline fill="none" stroke="#cbff00" stroke-width="0.5pt" stroke-dasharray="none" points="381.250,92.500 418.750,92.500 "/>
<g>
</g>
</g>
<g id="ID000027" clip-path="url(#ID000018)" >
<g>
</g>
</g>
<g id="ID000028" >
  <g transform="translate(423.443,118.975)">
    <g transform="rotate(-0.0)">
      <text x="0.000" y="0.000" font-family="Helvetica" text-anchor="start" font-size="10pt" fill="#000000" >Percentile 15</text>
    </g>
  </g>
</g>
<g id="ID000029" clip-path="url(#ID000018)" >
      <polyline fill="none" stroke="#33ff00" stroke-width="0.5pt" stroke-dasharray="none" points="381.250,113.125 418.750,113.125 "/>
<g>
</g>
</g>
<g id="ID000030" clip-path="url(#ID000018)" >
<g>
</g>
</g>
<g id="ID000031" >
  <g transform="translate(423.443,139.034)">
    <g transform="rotate(-0.0)">
      <text x="0.000" y="0.000" font-family="Helvetica" text-anchor="start" font-size="10pt" fill="#000000" >Percentile 20</text>
    </g>
  </g>
</g>
<g id="ID000032" clip-path="url(#ID000018)" >
      <polyline fill="none" stroke="#00ff66" stroke-width="0.5pt" stroke-dasharray="none" points="381.250,133.750 418.750,133.750 "/>
<g>
</g>
</g>
<g id="ID000033" clip-path="url(#ID000018)" >
<g>
</g>
</g>
<g id="ID000034" >
  <g transform="translate(423.443,160.097)">
    <g transform="rotate(-0.0)">
      <text x="0.000" y="0.000" font-family="Helvetica" text-anchor="start" font-size="10pt" fill="#000000" >Percentile 25</text>
    </g>
  </g>
</g>
<g id="ID000035" clip-path="url(#ID000018)" >
      <polyline fill="none" stroke="#00ffff" stroke-width="0.5pt" stroke-dasharray="none" points="381.250,154.375 418.750,154.375 "/>
<g>
</g>
</g>
<g id="ID000036" clip-path="url(#ID000018)" >
<g>
</g>
</g>
<g id="ID000037" >
  <g transform="translate(423.443,180.156)">
    <g transform="rotate(-0.0)">
      <text x="0.000" y="0.000" font-family="Helvetica" text-anchor="start" font-size="10pt" fill="#000000" >Percentile 30</text>
    </g>
  </g>
</g>
<g id="ID000038" clip-path="url(#ID000018)" >
      <polyline fill="none" stroke="#0066ff" stroke-width="0.5pt" stroke-dasharray="none" points="381.250,175.000 418.750,175.000 "/>
<g>
</g>
</g>
<g id="ID000039" clip-path="url(#ID000018)" >
<g>
</g>
</g>
<g id="ID000040" >
  <g transform="translate(423.443,201.219)">
    <g transform="rotate(-0.0)">
      <text x="0.000" y="0.000" font-family="Helvetica" text-anchor="start" font-size="10pt" fill="#000000" >Percentile 35</text>
    </g>
  </g>
</g>
<g id="ID000041" clip-path="url(#ID000018)" >
      <polyline fill="none" stroke="#3200ff" stroke-width="0.5pt" stroke-dasharray="none" points="381.250,195.625 418.750,195.625 "/>
<g>
</g>
</g>
<g id="ID000042" clip-path="url(#ID000018)" >
<g>
</g>
</g>
<g id="ID000043" >
  <g transform="translate(423.443,222.281)">
    <g transform="rotate(-0.0)">
      <text x="0.000" y="0.000" font-family="Helvetica" text-anchor="start" font-size="10pt" fill="#000000" >Percentile 40</text>
    </g>
  </g>
</g>
<g id="ID000044" clip-path="url(#ID000018)" >
      <polyline fill="none" stroke="#cc00ff" stroke-width="0.5pt" stroke-dasharray="none" points="381.250,216.250 418.750,216.250 "/>
<g>
</g>
</g>
<g id="ID000045" clip-path="url(#ID000018)" >
<g>
</g>
</g>
<g id="ID000046" >
  <g transform="translate(423.443,242.341)">
    <g transform="rotate(-0.0)">
      <text x="0.000" y="0.000" font-family="Helvetica" text-anchor="start" font-size="10pt" fill="#000000" >Percentile 45</text>
    </g>
  </g>
</g>
<g id="ID000047" clip-path="url(#ID000018)" >
      <polyline fill="none" stroke="#ff0098" stroke-width="0.5pt" stroke-dasharray="none" points="381.250,236.875 418.750,236.875 "/>
<g>
</g>
</g>
<g id="ID000048" clip-path="url(#ID000018)" >
<g>
</g>
</g>
<g id="ID000049" >
</g>
<g id="ID000050" >
</g>
<g id="ID000051" >
</g>
    </g>
    <g>
      <polyline fill="none" stroke="#000000" stroke-width="0.5pt" stroke-dasharray="none" points="373.750,249.375 502.250,249.375 "/>
      <polyline fill="none" stroke="#000000" stroke-width="0.5pt" stroke-dasharray="none" points="373.750,38.750 502.250,38.750 "/>
      <polyline fill="none" stroke="#000000" stroke-width="0.5pt" stroke-dasharray="none" points="373.750,249.375 373.750,38.750 "/>
      <polyline fill="none" stroke="#000000" stroke-width="0.5pt" stroke-dasharray="none" points="502.250,249.375 502.250,38.750 "/>
      <polyline fill="none" stroke="#000000" stroke-width="0.5pt" stroke-dasharray="none" points="373.750,249.375 373.750,247.269 "/>
      <polyline fill="none" stroke="#000000" stroke-width="0.5pt" stroke-dasharray="none" points="373.750,249.375 373.750,249.375 "/>
    </g>
  </g>
  </g>
</svg>
