<?xml version="1.0" encoding="UTF-8" standalone="no"?>
<svg
   xmlns:dc="http://purl.org/dc/elements/1.1/"
   xmlns:cc="http://creativecommons.org/ns#"
   xmlns:rdf="http://www.w3.org/1999/02/22-rdf-syntax-ns#"
   xmlns:svg="http://www.w3.org/2000/svg"
   xmlns="http://www.w3.org/2000/svg"
   xmlns:sodipodi="http://sodipodi.sourceforge.net/DTD/sodipodi-0.dtd"
   xmlns:inkscape="http://www.inkscape.org/namespaces/inkscape"
   preserveAspectRatio="xMinYMin meet"
   width="100%"
   height="100%"
   viewBox="0 0 560.000 420.000"
   version="1.1"
   id="svg3272"
   inkscape:version="0.48.0 r9654"
   sodipodi:docname="1.svg">
  <metadata
     id="metadata3519">
    <rdf:RDF>
      <cc:Work
         rdf:about="">
        <dc:format>image/svg+xml</dc:format>
        <dc:type
           rdf:resource="http://purl.org/dc/dcmitype/StillImage" />
      </cc:Work>
    </rdf:RDF>
  </metadata>
  <defs
     id="defs3517" />
  <sodipodi:namedview
     pagecolor="#ffffff"
     bordercolor="#666666"
     borderopacity="1"
     objecttolerance="10"
     gridtolerance="10"
     guidetolerance="10"
     inkscape:pageopacity="0"
     inkscape:pageshadow="2"
     inkscape:window-width="1280"
     inkscape:window-height="969"
     id="namedview3515"
     showgrid="false"
     inkscape:zoom="0.6547619"
     inkscape:cx="280"
     inkscape:cy="210"
     inkscape:window-x="-3"
     inkscape:window-y="-3"
     inkscape:window-maximized="1"
     inkscape:current-layer="topgroup" />
  <desc
     id="desc3274">Matlab Figure Converted by PLOT2SVG written by Juerg Schwizer</desc>
  <g
     id="topgroup"
     transform="matrix(2.0254546,0,0,2.0109091,-305.45454,-264.21818)">
    <rect
       x="0"
       y="0"
       width="560"
       height="420"
       id="rect3277"
       style="fill:#ffffff;stroke:none" />
    <g
       id="ID000000"
       transform="matrix(1.1528265,0,0,1.1360776,-4.0804146,-1.7466001)">
      <clipPath
         id="ID000001">
        <rect
           x="72.800003"
           y="31.5"
           width="434"
           height="342.29999"
           id="rect3281" />
      </clipPath>
      <polygon
         points="72.8,373.8 506.8,373.8 506.8,31.5 72.8,31.5 "
         id="polygon3283"
         style="fill:#ffffff;fill-opacity:1;stroke:none" />
      <polygon
         points="72.8,31.5 506.8,31.5 506.8,31.5 72.8,31.5 "
         id="polygon3285"
         style="fill:#ffffff;fill-opacity:1;stroke:none" />
      <polygon
         points="72.8,373.8 72.8,373.8 72.8,31.5 72.8,31.5 "
         id="polygon3287"
         style="fill:#ffffff;fill-opacity:1;stroke:none" />
      <g
         id="g3289">
        <g
           id="ID000002"
           clip-path="url(#ID000001)">
          <polyline
             points="73.234,42.375 73.668,42.925 74.102,42.734 74.536,42.063 74.970,42.013 75.404,44.853 75.838,50.009 76.272,51.639 76.706,52.689 77.140,52.420 77.574,52.811 78.008,53.037 78.442,50.815 78.876,48.725 79.310,50.020 79.744,47.721 80.178,48.198 80.612,47.957 81.046,48.094 81.480,48.013 81.914,44.949 82.348,46.447 82.782,46.113 83.216,45.136 83.650,44.290 84.084,43.504 84.518,43.097 84.952,41.511 85.386,40.341 85.820,38.073 86.254,37.325 86.688,40.175 87.122,40.872 87.556,42.063 87.990,45.424 88.424,44.028 88.858,43.949 89.292,44.927 89.726,44.754 90.160,45.959 90.594,45.611 91.028,44.547 91.462,50.025 91.896,53.210 92.330,55.385 92.764,61.079 93.198,61.892 93.632,64.842 94.066,64.519 94.500,66.830 94.934,67.717 95.368,70.217 95.802,76.621 96.236,79.351 96.670,79.940 97.104,79.182 97.538,78.615 97.972,78.349 98.406,77.680 98.840,79.087 99.274,78.099 99.708,79.848 100.142,81.509 100.576,83.562 101.010,87.476 101.444,90.731 101.878,94.045 102.312,98.201 102.746,102.702 103.180,102.160 103.614,103.292 104.048,105.855 104.482,110.301 104.916,113.677 105.350,118.920 105.784,120.003 106.218,121.449 106.652,122.869 107.086,121.953 107.520,122.121 107.954,120.608 108.388,119.292 108.822,121.386 109.256,120.996 109.690,118.595 110.124,117.617 110.558,117.776 110.992,118.797 111.426,119.125 111.860,118.875 112.294,119.725 112.728,119.935 113.162,121.462 113.596,121.471 114.030,123.728 114.464,124.132 114.898,124.659 115.332,127.310 115.766,133.812 116.200,140.045 116.634,142.660 117.068,142.698 117.502,143.056 117.936,145.698 118.370,147.766 118.804,150.085 119.238,154.067 119.672,156.283 120.106,159.016 120.540,161.437 120.974,162.434 121.408,164.317 121.842,167.301 122.276,169.032 122.710,169.143 123.144,173.526 123.578,176.280 124.012,179.955 124.446,181.948 124.880,184.399 125.314,188.562 125.748,195.315 126.182,201.475 126.616,200.488 127.050,204.181 127.484,207.485 127.918,213.461 128.352,218.811 128.786,221.975 129.220,226.367 129.654,231.564 130.088,232.634 130.522,234.993 130.956,238.339 131.390,240.896 131.824,241.924 132.258,247.670 132.692,250.757 133.126,251.524 133.560,251.974 133.994,253.861 134.428,256.268 134.862,257.173 135.296,256.798 135.730,254.753 136.164,255.058 136.598,256.862 137.032,253.302 137.466,255.981 137.900,253.833 138.334,254.196 138.768,253.288 139.202,251.393 139.636,250.927 140.070,250.875 140.504,251.749 140.938,251.364 141.372,251.181 141.806,247.807 142.240,247.514 142.674,247.245 143.108,246.251 143.542,246.043 143.976,245.202 144.410,240.786 144.844,240.807 145.278,240.208 145.712,238.907 146.146,236.472 146.580,234.761 147.014,232.616 147.448,229.306 147.882,223.413 148.316,220.537 148.750,219.867 149.184,218.001 149.618,216.424 150.052,212.997 150.486,208.501 150.920,204.133 151.354,200.985 151.788,201.997 152.222,199.043 152.656,198.146 153.090,194.539 153.524,191.791 153.958,189.436 154.392,185.558 154.826,182.369 155.260,179.407 155.694,178.290 156.128,174.837 156.562,170.899 156.996,168.719 157.430,170.572 157.864,171.573 158.298,171.374 158.732,167.485 159.166,166.250 159.600,165.486 160.034,158.240 160.468,153.220 160.902,149.026 161.336,147.834 161.770,145.021 162.204,143.799 162.638,142.330 163.072,140.487 163.506,137.823 163.940,139.133 164.374,140.336 164.808,141.072 165.242,142.042 165.676,141.732 166.110,143.986 166.544,143.291 166.978,145.259 167.412,145.533 167.846,150.029 168.280,151.357 168.714,153.934 169.148,156.140 169.582,157.064 170.016,158.158 170.450,158.506 170.884,158.544 171.318,158.354 171.752,160.573 172.186,165.363 172.620,167.031 173.054,168.105 173.488,169.335 173.922,172.722 174.356,174.832 174.790,176.797 175.224,177.678 175.658,180.156 176.092,180.894 176.526,180.636 176.960,180.673 177.394,181.919 177.828,183.760 178.262,188.206 178.696,187.116 179.130,188.260 179.564,190.565 179.998,192.072 180.432,192.255 180.866,193.314 181.300,194.264 181.734,192.311 182.168,188.588 182.602,187.065 183.036,187.410 183.470,185.795 183.904,183.791 184.338,182.707 184.772,178.069 185.206,178.549 185.640,178.539 186.074,177.133 186.508,174.361 186.942,173.479 187.376,173.456 187.810,173.197 188.244,171.787 188.678,172.951 189.112,172.505 189.546,174.402 189.980,178.383 190.414,180.919 190.848,184.952 191.282,187.786 191.716,188.788 192.150,191.846 192.584,191.409 193.018,191.291 193.452,192.370 193.886,193.213 194.320,194.350 194.754,193.521 195.188,193.816 195.622,193.437 196.056,194.540 196.490,196.076 196.924,194.754 197.358,196.613 197.792,193.914 198.226,191.937 198.660,191.534 199.094,190.401 199.528,188.333 199.962,188.567 200.396,189.389 200.830,188.449 201.264,187.730 201.698,189.563 202.132,190.556 202.566,190.757 203.000,191.831 203.434,192.414 203.868,191.767 204.302,191.248 204.736,191.806 205.170,190.278 205.604,190.489 206.038,186.695 206.472,186.095 206.906,186.466 207.340,187.430 207.774,184.922 208.208,182.874 208.642,179.756 209.076,179.144 209.510,180.145 209.944,180.534 210.378,181.949 210.812,183.805 211.246,186.043 211.680,186.624 212.114,190.740 212.548,192.488 212.982,192.719 213.416,192.984 213.850,192.926 214.284,192.447 214.718,190.171 215.152,189.413 215.586,188.614 216.020,190.308 216.454,187.121 216.888,185.717 217.322,183.154 217.756,183.152 218.190,183.846 218.624,180.032 219.058,178.311 219.492,177.016 219.926,177.226 220.360,175.472 220.794,173.358 221.228,172.144 221.662,169.433 222.096,166.178 222.530,167.456 222.964,167.374 223.398,167.749 223.832,168.740 224.266,164.138 224.700,162.366 225.134,161.127 225.568,161.843 226.002,162.716 226.436,163.543 226.870,168.362 227.304,169.639 227.738,165.346 228.172,162.545 228.606,163.373 229.040,163.335 229.474,163.170 229.908,163.092 230.342,163.354 230.776,162.518 231.210,162.328 231.644,163.777 232.078,166.453 232.512,166.011 232.946,163.976 233.380,163.128 233.814,162.353 234.248,161.254 234.682,160.820 235.116,159.741 235.550,160.372 235.984,159.048 236.418,156.417 236.852,155.406 237.286,153.759 237.720,154.154 238.154,152.940 238.588,147.388 239.022,145.158 239.456,144.521 239.890,142.920 240.324,139.928 240.758,136.712 241.192,133.459 241.626,135.657 242.060,135.547 242.494,131.778 242.928,129.056 243.362,128.745 243.796,125.464 244.230,125.641 244.664,123.772 245.098,124.762 245.532,127.210 245.966,128.994 246.400,130.153 246.834,131.457 247.268,132.613 247.702,133.869 248.136,137.725 248.570,139.837 249.004,139.329 249.438,137.930 249.872,134.949 250.306,133.458 250.740,131.316 251.174,131.759 251.608,132.488 252.042,132.664 252.476,130.987 252.910,128.223 253.344,128.250 253.778,127.552 254.212,125.885 254.646,124.621 255.080,126.776 255.514,129.445 255.948,130.260 256.382,129.302 256.816,129.502 257.250,130.421 257.684,129.133 258.118,128.351 258.552,127.384 258.986,131.903 259.420,131.423 259.854,133.496 260.288,131.450 260.722,132.148 261.156,132.643 261.590,130.042 262.024,132.048 262.458,133.630 262.892,135.585 263.326,135.718 263.760,134.104 264.194,136.130 264.628,137.109 265.062,137.501 265.496,138.151 265.930,138.856 266.364,139.824 266.798,140.130 267.232,139.440 267.666,139.210 268.100,141.512 268.534,144.977 268.968,146.910 269.402,147.057 269.836,146.759 270.270,143.346 270.704,141.597 271.138,138.592 271.572,141.908 272.006,142.193 272.440,141.751 272.874,143.041 273.308,142.300 273.742,141.390 274.176,140.645 274.610,143.440 275.044,143.566 275.478,143.717 275.912,143.108 276.346,140.375 276.780,140.729 277.214,139.892 277.648,140.935 278.082,140.874 278.516,140.455 278.950,140.905 279.384,142.665 279.818,142.783 280.252,141.096 280.686,143.562 281.120,143.377 281.554,146.399 281.988,146.317 282.422,148.627 282.856,148.557 283.290,149.498 283.724,147.917 284.158,145.083 284.592,148.114 285.026,146.302 285.460,144.963 285.894,143.923 286.328,139.510 286.762,139.151 287.196,137.808 287.630,137.942 288.064,134.779 288.498,130.370 288.932,129.743 289.366,131.307 289.800,130.300 290.234,128.735 290.668,129.012 291.102,130.403 291.536,123.262 291.970,120.953 292.404,122.375 292.838,123.881 293.272,126.629 293.706,127.022 294.140,126.460 294.574,125.822 295.008,123.551 295.442,123.889 295.876,120.997 296.310,120.460 296.744,117.153 297.178,115.412 297.612,114.276 298.046,114.934 298.480,113.385 298.914,110.021 299.348,105.135 299.782,106.873 300.216,107.243 300.650,108.490 301.084,108.108 301.518,108.176 301.952,107.497 302.386,107.123 302.820,109.832 303.254,109.603 303.688,109.485 304.122,110.233 304.556,107.657 304.990,107.787 305.424,108.018 305.858,109.265 306.292,105.827 306.726,105.706 307.160,107.963 307.594,110.939 308.028,111.629 308.462,114.914 308.896,117.366 309.330,121.087 309.764,122.877 310.198,127.443 310.632,128.476 311.066,130.541 311.500,130.678 311.934,130.451 312.368,129.756 312.802,129.801 313.236,133.365 313.670,131.342 314.104,131.168 314.538,129.228 314.972,128.104 315.406,128.022 315.840,128.718 316.274,132.543 316.708,133.703 317.142,133.322 317.576,134.073 318.010,135.587 318.444,135.477 318.878,136.322 319.312,135.850 319.746,137.364 320.180,142.801 320.614,146.159 321.048,143.720 321.482,143.343 321.916,143.848 322.350,141.736 322.784,140.615 323.218,138.365 323.652,135.867 324.086,136.880 324.520,138.408 324.954,137.817 325.388,139.511 325.822,136.989 326.256,138.262 326.690,139.609 327.124,136.788 327.558,136.624 327.992,133.804 328.426,133.356 328.860,137.580 329.294,140.351 329.728,138.427 330.162,135.492 330.596,132.502 331.030,133.700 331.464,136.057 331.898,134.605 332.332,133.484 332.766,130.546 333.200,129.288 333.634,129.439 334.068,129.345 334.502,126.511 334.936,122.027 335.370,119.409 335.804,118.094 336.238,113.155 336.672,111.929 337.106,110.285 337.540,110.268 337.974,110.616 338.408,107.143 338.842,104.947 339.276,106.438 339.710,106.265 340.144,106.927 340.578,102.113 341.012,101.551 341.446,102.202 341.880,98.528 342.314,97.174 342.748,93.423 343.182,90.787 343.616,92.094 344.050,92.054 344.484,88.692 344.918,87.332 345.352,87.008 345.786,88.929 346.220,87.859 346.654,87.442 347.088,85.585 347.522,87.321 347.956,87.196 348.390,84.185 348.824,86.571 349.258,86.379 349.692,81.452 350.126,80.781 350.560,79.864 350.994,78.878 351.428,77.860 351.862,75.194 352.296,73.801 352.730,71.374 353.164,72.929 353.598,78.525 354.032,80.427 354.466,81.491 354.900,81.720 355.334,84.619 355.768,86.263 356.202,86.568 356.636,88.503 357.070,91.952 357.504,95.618 357.938,101.137 358.372,101.348 358.806,100.631 359.240,101.285 359.674,102.088 360.108,103.185 360.542,105.551 360.976,107.216 361.410,109.043 361.844,112.543 362.278,119.785 362.712,121.122 363.146,122.430 363.580,126.012 364.014,128.665 364.448,129.951 364.882,126.652 365.316,129.346 365.750,133.254 366.184,136.288 366.618,136.773 367.052,139.759 367.486,141.862 367.920,143.838 368.354,149.272 368.788,151.356 369.222,150.813 369.656,153.971 370.090,156.797 370.524,160.245 370.958,161.429 371.392,162.864 371.826,165.400 372.260,165.364 372.694,166.050 373.128,162.825 373.562,163.120 373.996,164.385 374.430,165.004 374.864,167.210 375.298,169.571 375.732,170.207 376.166,170.530 376.600,172.935 377.034,176.176 377.468,179.405 377.902,178.456 378.336,180.288 378.770,181.592 379.204,182.300 379.638,182.532 380.072,182.985 380.506,184.990 380.940,184.520 381.374,187.200 381.808,187.020 382.242,189.420 382.676,186.603 383.110,185.093 383.544,186.924 383.978,187.543 384.412,187.166 384.846,185.837 385.280,186.506 385.714,187.244 386.148,185.963 386.582,183.861 387.016,181.171 387.450,179.742 387.884,179.787 388.318,179.081 388.752,178.392 389.186,178.191 389.620,178.813 390.054,176.476 390.488,177.498 390.922,178.430 391.356,183.799 391.790,183.898 392.224,183.517 392.658,184.607 393.092,188.959 393.526,191.488 393.960,195.299 394.394,197.004 394.828,197.688 395.262,199.453 395.696,199.991 396.130,202.692 396.564,204.628 396.998,203.162 397.432,204.096 397.866,207.133 398.300,210.774 398.734,214.599 399.168,217.328 399.602,217.757 400.036,221.303 400.470,225.606 400.904,226.834 401.338,229.331 401.772,228.021 402.206,229.412 402.640,230.157 403.074,229.769 403.508,231.341 403.942,234.351 404.376,237.186 404.810,239.701 405.244,240.226 405.678,240.682 406.112,241.607 406.546,244.444 406.980,244.989 407.414,249.184 407.848,254.916 408.282,259.091 408.716,264.332 409.150,265.128 409.584,266.998 410.018,267.677 410.452,272.363 410.886,274.775 411.320,275.187 411.754,277.082 412.188,275.722 412.622,278.283 413.056,282.138 413.490,284.145 413.924,284.120 414.358,288.089 414.792,290.723 415.226,293.688 415.660,296.724 416.094,294.716 416.528,293.346 416.962,292.430 417.396,297.136 417.830,300.263 418.264,302.559 418.698,303.316 419.132,302.738 419.566,302.087 420.000,306.058 420.434,308.556 420.868,306.349 421.302,306.311 421.736,307.488 422.170,306.456 422.604,303.097 423.038,303.046 423.472,302.844 423.906,300.913 424.340,298.222 424.774,297.808 425.208,298.912 425.642,301.011 426.076,300.415 426.510,298.485 426.944,296.157 427.378,297.061 427.812,295.764 428.246,295.254 428.680,293.812 429.114,292.202 429.548,292.053 429.982,290.214 430.416,290.553 430.850,290.294 431.284,290.089 431.718,289.955 432.152,292.269 432.586,290.169 433.020,290.212 433.454,288.594 433.888,288.452 434.322,287.569 434.756,285.696 435.190,285.126 435.624,284.583 436.058,285.090 436.492,285.253 436.926,284.538 437.360,285.746 437.794,286.363 438.228,285.211 438.662,281.539 439.096,277.535 439.530,275.233 439.964,274.036 440.398,273.791 440.832,273.934 441.266,273.848 441.700,276.647 442.134,277.137 442.568,276.478 443.002,277.427 443.436,278.324 443.870,278.993 444.304,279.581 444.738,275.566 445.172,274.076 445.606,273.020 446.040,273.046 446.474,275.563 446.908,275.069 447.342,276.543 447.776,278.211 448.210,278.282 448.644,279.313 449.078,280.970 449.512,281.361 449.946,278.703 450.380,279.141 450.814,277.636 451.248,278.406 451.682,279.836 452.116,279.791 452.550,282.072 452.984,281.462 453.418,281.200 453.852,281.358 454.286,281.385 454.720,281.037 455.154,280.098 455.588,281.153 456.022,281.463 456.456,282.003 456.890,282.992 457.324,283.951 457.758,281.492 458.192,284.255 458.626,283.194 459.060,284.529 459.494,283.272 459.928,285.116 460.362,287.047 460.796,287.004 461.230,285.226 461.664,286.013 462.098,285.150 462.532,284.672 462.966,286.594 463.400,288.322 463.834,288.679 464.268,290.511 464.702,289.128 465.136,291.753 465.570,292.258 466.004,293.533 466.438,293.580 466.872,299.486 467.306,302.522 467.740,306.060 468.174,307.026 468.608,307.820 469.042,308.510 469.476,308.605 469.910,308.459 470.344,310.422 470.778,311.183 471.212,311.427 471.646,312.722 472.080,313.998 472.514,318.698 472.948,322.818 473.382,327.095 473.816,329.398 474.250,328.824 474.684,331.086 475.118,333.183 475.552,335.889 475.986,337.978 476.420,339.111 476.854,338.975 477.288,339.911 477.722,340.914 478.156,340.459 478.590,339.394 479.024,337.685 479.458,336.151 479.892,337.526 480.326,335.062 480.760,340.809 481.194,338.566 481.628,332.784 482.062,328.684 482.496,328.852 482.930,325.972 483.364,325.262 483.798,322.589 484.232,318.592 484.666,315.315 485.100,311.628 485.534,310.734 485.968,311.666 486.402,311.728 486.836,311.975 487.270,309.755 487.704,311.115 488.138,313.117 488.572,311.803 489.006,312.463 489.440,312.828 489.874,312.097 490.308,307.226 490.742,303.495 491.176,301.764 491.610,297.184 492.044,296.187 492.478,296.241 492.912,292.966 493.346,289.928 493.780,288.553 494.214,286.759 494.648,285.028 495.082,282.072 495.516,280.437 495.950,277.338 496.384,277.485 496.818,276.993 497.252,277.512 497.686,277.141 498.120,276.039 498.554,278.058 498.988,278.934 499.422,276.141 499.856,273.826 500.290,273.169 500.724,274.459 501.158,273.053 501.592,270.601 502.026,270.783 502.460,273.436 502.894,275.214 503.328,273.487 503.762,271.572 504.196,272.096 504.630,269.771 505.064,269.899 505.498,268.981 505.932,263.643 506.366,264.037 506.800,258.208 "
             id="polyline3292"
             style="fill:none;stroke:#ff00ff;stroke-width:0.5pt;stroke-dasharray:none" />
          <g
             id="g3294" />
        </g>
        <g
           id="ID000003">
          <g
             transform="translate(289.3,408.822)"
             id="g3297">
            <g
               id="g3299">
              <text
                 x="0"
                 y="0"
                 font-size="10pt"
                 id="text3301"
                 style="font-size:12.5px;text-anchor:middle;fill:#000000;font-family:Helvetica">time</text>
            </g>
          </g>
        </g>
        <g
           id="ID000004">
          <g
             transform="translate(35.8,204.151)"
             id="g3304">
            <g
               transform="matrix(0,-1,1,0,0,0)"
               id="g3306">
              <text
                 x="0"
                 y="0"
                 font-size="10pt"
                 id="text3308"
                 style="font-size:12.5px;text-anchor:middle;fill:#000000;font-family:Helvetica">
                <tspan
                   style="font-style:normal;font-variant:normal;font-weight:normal;font-stretch:normal;font-family:Arial;-inkscape-font-specification:Arial"
                   id="tspan3523">MSE/R</tspan>
              </text>
            </g>
          </g>
        </g>
        <g
           id="ID000005">
          <g
             transform="translate(289.3,21.493)"
             id="g3311">
            <g
               id="g3313">
              <text
                 x="0"
                 y="0"
                 font-size="10pt"
                 id="text3315"
                 style="font-size:12.5px;text-anchor:middle;fill:#000000;font-family:Helvetica">
                <tspan
                   style="font-size:11.89196873px;font-style:normal;font-variant:normal;font-weight:bold;font-stretch:normal;font-family:Arial;-inkscape-font-specification:Arial Bold"
                   id="tspan3521">MSE of Real MobilityVs Inferred Mobility</tspan>
              </text>
            </g>
          </g>
        </g>
      </g>
      <g
         id="g3317">
        <polyline
           points="116.200,373.800 116.200,369.460 "
           id="polyline3319"
           style="fill:none;stroke:#000000;stroke-width:0.5pt;stroke-dasharray:none" />
        <polyline
           points="159.600,373.800 159.600,369.460 "
           id="polyline3321"
           style="fill:none;stroke:#000000;stroke-width:0.5pt;stroke-dasharray:none" />
        <polyline
           points="203.000,373.800 203.000,369.460 "
           id="polyline3323"
           style="fill:none;stroke:#000000;stroke-width:0.5pt;stroke-dasharray:none" />
        <polyline
           points="246.400,373.800 246.400,369.460 "
           id="polyline3325"
           style="fill:none;stroke:#000000;stroke-width:0.5pt;stroke-dasharray:none" />
        <polyline
           points="289.800,373.800 289.800,369.460 "
           id="polyline3327"
           style="fill:none;stroke:#000000;stroke-width:0.5pt;stroke-dasharray:none" />
        <polyline
           points="333.200,373.800 333.200,369.460 "
           id="polyline3329"
           style="fill:none;stroke:#000000;stroke-width:0.5pt;stroke-dasharray:none" />
        <polyline
           points="376.600,373.800 376.600,369.460 "
           id="polyline3331"
           style="fill:none;stroke:#000000;stroke-width:0.5pt;stroke-dasharray:none" />
        <polyline
           points="420.000,373.800 420.000,369.460 "
           id="polyline3333"
           style="fill:none;stroke:#000000;stroke-width:0.5pt;stroke-dasharray:none" />
        <polyline
           points="463.400,373.800 463.400,369.460 "
           id="polyline3335"
           style="fill:none;stroke:#000000;stroke-width:0.5pt;stroke-dasharray:none" />
        <polyline
           points="72.800,373.800 506.800,373.800 "
           id="polyline3337"
           style="fill:none;stroke:#000000;stroke-width:0.5pt;stroke-dasharray:none" />
        <polyline
           points="116.200,31.500 116.200,35.840 "
           id="polyline3339"
           style="fill:none;stroke:#000000;stroke-width:0.5pt;stroke-dasharray:none" />
        <polyline
           points="159.600,31.500 159.600,35.840 "
           id="polyline3341"
           style="fill:none;stroke:#000000;stroke-width:0.5pt;stroke-dasharray:none" />
        <polyline
           points="203.000,31.500 203.000,35.840 "
           id="polyline3343"
           style="fill:none;stroke:#000000;stroke-width:0.5pt;stroke-dasharray:none" />
        <polyline
           points="246.400,31.500 246.400,35.840 "
           id="polyline3345"
           style="fill:none;stroke:#000000;stroke-width:0.5pt;stroke-dasharray:none" />
        <polyline
           points="289.800,31.500 289.800,35.840 "
           id="polyline3347"
           style="fill:none;stroke:#000000;stroke-width:0.5pt;stroke-dasharray:none" />
        <polyline
           points="333.200,31.500 333.200,35.840 "
           id="polyline3349"
           style="fill:none;stroke:#000000;stroke-width:0.5pt;stroke-dasharray:none" />
        <polyline
           points="376.600,31.500 376.600,35.840 "
           id="polyline3351"
           style="fill:none;stroke:#000000;stroke-width:0.5pt;stroke-dasharray:none" />
        <polyline
           points="420.000,31.500 420.000,35.840 "
           id="polyline3353"
           style="fill:none;stroke:#000000;stroke-width:0.5pt;stroke-dasharray:none" />
        <polyline
           points="463.400,31.500 463.400,35.840 "
           id="polyline3355"
           style="fill:none;stroke:#000000;stroke-width:0.5pt;stroke-dasharray:none" />
        <polyline
           points="72.800,31.500 506.800,31.500 "
           id="polyline3357"
           style="fill:none;stroke:#000000;stroke-width:0.5pt;stroke-dasharray:none" />
        <g
           transform="translate(72.8,392.446)"
           id="g3359">
          <g
             id="g3361">
            <text
               x="0"
               y="0"
               font-size="10pt"
               id="text3363"
               style="font-size:12.5px;text-anchor:middle;fill:#000000;font-family:Helvetica">0</text>
          </g>
        </g>
        <g
           transform="translate(116.2,392.446)"
           id="g3365">
          <g
             id="g3367">
            <text
               x="0"
               y="0"
               font-size="10pt"
               id="text3369"
               style="font-size:12.5px;text-anchor:middle;fill:#000000;font-family:Helvetica">100</text>
          </g>
        </g>
        <g
           transform="translate(159.6,392.446)"
           id="g3371">
          <g
             id="g3373">
            <text
               x="0"
               y="0"
               font-size="10pt"
               id="text3375"
               style="font-size:12.5px;text-anchor:middle;fill:#000000;font-family:Helvetica">200</text>
          </g>
        </g>
        <g
           transform="translate(203,392.446)"
           id="g3377">
          <g
             id="g3379">
            <text
               x="0"
               y="0"
               font-size="10pt"
               id="text3381"
               style="font-size:12.5px;text-anchor:middle;fill:#000000;font-family:Helvetica">300</text>
          </g>
        </g>
        <g
           transform="translate(246.4,392.446)"
           id="g3383">
          <g
             id="g3385">
            <text
               x="0"
               y="0"
               font-size="10pt"
               id="text3387"
               style="font-size:12.5px;text-anchor:middle;fill:#000000;font-family:Helvetica">400</text>
          </g>
        </g>
        <g
           transform="translate(289.8,392.446)"
           id="g3389">
          <g
             id="g3391">
            <text
               x="0"
               y="0"
               font-size="10pt"
               id="text3393"
               style="font-size:12.5px;text-anchor:middle;fill:#000000;font-family:Helvetica">500</text>
          </g>
        </g>
        <g
           transform="translate(333.2,392.446)"
           id="g3395">
          <g
             id="g3397">
            <text
               x="0"
               y="0"
               font-size="10pt"
               id="text3399"
               style="font-size:12.5px;text-anchor:middle;fill:#000000;font-family:Helvetica">600</text>
          </g>
        </g>
        <g
           transform="translate(376.6,392.446)"
           id="g3401">
          <g
             id="g3403">
            <text
               x="0"
               y="0"
               font-size="10pt"
               id="text3405"
               style="font-size:12.5px;text-anchor:middle;fill:#000000;font-family:Helvetica">700</text>
          </g>
        </g>
        <g
           transform="translate(420,392.446)"
           id="g3407">
          <g
             id="g3409">
            <text
               x="0"
               y="0"
               font-size="10pt"
               id="text3411"
               style="font-size:12.5px;text-anchor:middle;fill:#000000;font-family:Helvetica">800</text>
          </g>
        </g>
        <g
           transform="translate(463.4,392.446)"
           id="g3413">
          <g
             id="g3415">
            <text
               x="0"
               y="0"
               font-size="10pt"
               id="text3417"
               style="font-size:12.5px;text-anchor:middle;fill:#000000;font-family:Helvetica">900</text>
          </g>
        </g>
        <g
           transform="translate(506.8,392.446)"
           id="g3419">
          <g
             id="g3421">
            <text
               x="0"
               y="0"
               font-size="10pt"
               id="text3423"
               style="font-size:12.5px;text-anchor:middle;fill:#000000;font-family:Helvetica">1000</text>
          </g>
        </g>
        <polyline
           points="72.800,331.013 77.140,331.013 "
           id="polyline3425"
           style="fill:none;stroke:#000000;stroke-width:0.5pt;stroke-dasharray:none" />
        <polyline
           points="72.800,288.225 77.140,288.225 "
           id="polyline3427"
           style="fill:none;stroke:#000000;stroke-width:0.5pt;stroke-dasharray:none" />
        <polyline
           points="72.800,245.438 77.140,245.438 "
           id="polyline3429"
           style="fill:none;stroke:#000000;stroke-width:0.5pt;stroke-dasharray:none" />
        <polyline
           points="72.800,202.650 77.140,202.650 "
           id="polyline3431"
           style="fill:none;stroke:#000000;stroke-width:0.5pt;stroke-dasharray:none" />
        <polyline
           points="72.800,159.863 77.140,159.863 "
           id="polyline3433"
           style="fill:none;stroke:#000000;stroke-width:0.5pt;stroke-dasharray:none" />
        <polyline
           points="72.800,117.075 77.140,117.075 "
           id="polyline3435"
           style="fill:none;stroke:#000000;stroke-width:0.5pt;stroke-dasharray:none" />
        <polyline
           points="72.800,74.288 77.140,74.288 "
           id="polyline3437"
           style="fill:none;stroke:#000000;stroke-width:0.5pt;stroke-dasharray:none" />
        <polyline
           points="72.800,373.800 72.800,31.500 "
           id="polyline3439"
           style="fill:none;stroke:#000000;stroke-width:0.5pt;stroke-dasharray:none" />
        <polyline
           points="506.800,331.013 502.460,331.013 "
           id="polyline3441"
           style="fill:none;stroke:#000000;stroke-width:0.5pt;stroke-dasharray:none" />
        <polyline
           points="506.800,288.225 502.460,288.225 "
           id="polyline3443"
           style="fill:none;stroke:#000000;stroke-width:0.5pt;stroke-dasharray:none" />
        <polyline
           points="506.800,245.438 502.460,245.438 "
           id="polyline3445"
           style="fill:none;stroke:#000000;stroke-width:0.5pt;stroke-dasharray:none" />
        <polyline
           points="506.800,202.650 502.460,202.650 "
           id="polyline3447"
           style="fill:none;stroke:#000000;stroke-width:0.5pt;stroke-dasharray:none" />
        <polyline
           points="506.800,159.863 502.460,159.863 "
           id="polyline3449"
           style="fill:none;stroke:#000000;stroke-width:0.5pt;stroke-dasharray:none" />
        <polyline
           points="506.800,117.075 502.460,117.075 "
           id="polyline3451"
           style="fill:none;stroke:#000000;stroke-width:0.5pt;stroke-dasharray:none" />
        <polyline
           points="506.800,74.288 502.460,74.288 "
           id="polyline3453"
           style="fill:none;stroke:#000000;stroke-width:0.5pt;stroke-dasharray:none" />
        <polyline
           points="506.800,373.800 506.800,31.500 "
           id="polyline3455"
           style="fill:none;stroke:#000000;stroke-width:0.5pt;stroke-dasharray:none" />
        <g
           transform="translate(64.12,378.3)"
           id="g3457">
          <g
             id="g3459">
            <text
               x="0"
               y="0"
               font-size="10pt"
               id="text3461"
               style="font-size:12.5px;text-anchor:end;fill:#000000;font-family:Helvetica">0.9</text>
          </g>
        </g>
        <g
           transform="translate(64.12,335.513)"
           id="g3463">
          <g
             id="g3465">
            <text
               x="0"
               y="0"
               font-size="10pt"
               id="text3467"
               style="font-size:12.5px;text-anchor:end;fill:#000000;font-family:Helvetica">0.95</text>
          </g>
        </g>
        <g
           transform="translate(64.12,292.725)"
           id="g3469">
          <g
             id="g3471">
            <text
               x="0"
               y="0"
               font-size="10pt"
               id="text3473"
               style="font-size:12.5px;text-anchor:end;fill:#000000;font-family:Helvetica">1</text>
          </g>
        </g>
        <g
           transform="translate(64.12,249.938)"
           id="g3475">
          <g
             id="g3477">
            <text
               x="0"
               y="0"
               font-size="10pt"
               id="text3479"
               style="font-size:12.5px;text-anchor:end;fill:#000000;font-family:Helvetica">1.05</text>
          </g>
        </g>
        <g
           transform="translate(64.12,207.15)"
           id="g3481">
          <g
             id="g3483">
            <text
               x="0"
               y="0"
               font-size="10pt"
               id="text3485"
               style="font-size:12.5px;text-anchor:end;fill:#000000;font-family:Helvetica">1.1</text>
          </g>
        </g>
        <g
           transform="translate(64.12,164.363)"
           id="g3487">
          <g
             id="g3489">
            <text
               x="0"
               y="0"
               font-size="10pt"
               id="text3491"
               style="font-size:12.5px;text-anchor:end;fill:#000000;font-family:Helvetica">1.15</text>
          </g>
        </g>
        <g
           transform="translate(64.12,121.575)"
           id="g3493">
          <g
             id="g3495">
            <text
               x="0"
               y="0"
               font-size="10pt"
               id="text3497"
               style="font-size:12.5px;text-anchor:end;fill:#000000;font-family:Helvetica">1.2</text>
          </g>
        </g>
        <g
           transform="translate(64.12,78.788)"
           id="g3499">
          <g
             id="g3501">
            <text
               x="0"
               y="0"
               font-size="10pt"
               id="text3503"
               style="font-size:12.5px;text-anchor:end;fill:#000000;font-family:Helvetica">1.25</text>
          </g>
        </g>
        <g
           transform="translate(64.12,36)"
           id="g3505">
          <g
             id="g3507">
            <text
               x="0"
               y="0"
               font-size="10pt"
               id="text3509"
               style="font-size:12.5px;text-anchor:end;fill:#000000;font-family:Helvetica">1.3</text>
          </g>
        </g>
        <polyline
           points="72.800,373.800 72.800,370.377 "
           id="polyline3511"
           style="fill:none;stroke:#000000;stroke-width:0.5pt;stroke-dasharray:none" />
        <polyline
           points="72.800,373.800 72.800,373.800 "
           id="polyline3513"
           style="fill:none;stroke:#000000;stroke-width:0.5pt;stroke-dasharray:none" />
      </g>
    </g>
  </g>
</svg>
