<?xml version="1.0" encoding="utf-8" standalone="no"?><!DOCTYPE svg PUBLIC "-//W3C//DTD SVG 1.1//EN" "http://www.w3.org/Graphics/SVG/1.1/DTD/svg11.dtd">
<svg preserveAspectRatio="xMinYMin meet" width="100%" height="100%" viewBox="0 0 560.000 420.000"  version="1.1" xmlns="http://www.w3.org/2000/svg" xmlns:xlink="http://www.w3.org/1999/xlink">
  <desc>Matlab Figure Converted by PLOT2SVG written by Juerg Schwizer</desc>
  <g id="topgroup">
  <rect x="0" y="0" width="560.000" height="420.000" fill="#ffffff" stroke="none" />
  <g id ="ID000000">
  <clipPath id="ID000001">
    <rect x="72.800" y="31.500" width="434.000" height="342.300"/>
  </clipPath>
      <polygon fill="#ffffff" fill-opacity="1.00" stroke="none" stroke-width="0.5pt" stroke-opacity="1.00" stroke-dasharray="none" points="72.800,373.800 506.800,373.800 506.800,31.500 72.800,31.500 "/>
      <polygon fill="#ffffff" fill-opacity="1.00" stroke="none" stroke-width="0.5pt" stroke-opacity="1.00" stroke-dasharray="none" points="72.800,31.500 506.800,31.500 506.800,31.500 72.800,31.500 "/>
      <polygon fill="#ffffff" fill-opacity="1.00" stroke="none" stroke-width="0.5pt" stroke-opacity="1.00" stroke-dasharray="none" points="72.800,373.800 72.800,373.800 72.800,31.500 72.800,31.500 "/>
    <g>
<g id="ID000002" clip-path="url(#ID000001)" >
      <polyline fill="none" stroke="#ff0000" stroke-width="0.5pt" stroke-dasharray="none" points="73.234,317.914 73.668,313.257 74.102,306.737 74.536,307.935 74.970,311.705 75.404,320.455 75.838,317.914 76.272,318.846 76.706,321.202 77.140,321.591 77.574,323.237 78.008,323.902 78.442,325.898 78.876,326.563 79.310,328.559 79.744,330.555 80.178,326.563 80.612,329.890 81.046,331.886 81.480,329.224 81.914,329.224 82.348,326.563 82.782,327.229 83.216,328.559 83.650,329.890 84.084,326.563 84.518,326.563 84.952,326.563 85.386,327.894 85.820,329.224 86.254,330.555 86.688,327.229 87.122,323.902 87.556,323.902 87.990,325.233 88.424,323.902 88.858,323.902 89.292,323.902 89.726,317.249 90.160,317.914 90.594,319.910 91.028,315.918 91.462,313.922 91.896,311.261 92.330,312.592 92.764,309.931 93.198,309.265 93.632,309.265 94.066,311.261 94.500,309.265 94.934,309.265 95.368,305.939 95.802,307.269 96.236,310.596 96.670,310.596 97.104,307.935 97.538,309.931 97.972,305.939 98.406,309.931 98.840,315.918 99.274,316.584 99.708,316.584 100.142,314.588 100.576,315.253 101.010,314.588 101.444,312.592 101.878,314.588 102.312,317.914 102.746,315.253 103.180,311.927 103.614,310.596 104.048,308.600 104.482,309.931 104.916,313.922 105.350,310.596 105.784,306.604 106.218,305.273 106.652,303.943 107.086,307.935 107.520,309.265 107.954,307.935 108.388,306.604 108.822,304.608 109.256,307.935 109.690,307.269 110.124,311.261 110.558,312.592 110.992,313.922 111.426,309.931 111.860,307.269 112.294,301.947 112.728,299.951 113.162,302.612 113.596,299.286 114.030,297.955 114.464,299.286 114.898,300.616 115.332,299.286 115.766,299.951 116.200,296.624 116.634,296.624 117.068,296.624 117.502,295.294 117.936,296.624 118.370,297.955 118.804,301.282 119.238,300.616 119.672,297.290 120.106,296.624 120.540,299.951 120.974,303.943 121.408,308.600 121.842,312.592 122.276,307.935 122.710,309.265 123.144,308.600 123.578,306.604 124.012,307.269 124.446,305.273 124.880,299.951 125.314,293.963 125.748,290.637 126.182,291.302 126.616,286.645 127.050,287.310 127.484,287.310 127.918,285.980 128.352,285.980 128.786,289.306 129.220,287.976 129.654,287.310 130.088,287.310 130.522,287.976 130.956,289.306 131.390,290.637 131.824,288.641 132.258,288.641 132.692,289.306 133.126,287.976 133.560,289.971 133.994,295.959 134.428,301.947 134.862,305.273 135.296,305.273 135.730,310.596 136.164,309.931 136.598,307.935 137.032,307.269 137.466,307.935 137.900,307.935 138.334,308.600 138.768,309.931 139.202,310.596 139.636,312.592 140.070,307.935 140.504,305.273 140.938,309.931 141.372,311.261 141.806,315.253 142.240,317.249 142.674,318.580 143.108,319.245 143.542,319.910 143.976,319.245 144.410,317.914 144.844,317.249 145.278,317.914 145.712,321.241 146.146,324.567 146.580,324.567 147.014,324.567 147.448,325.233 147.882,323.237 148.316,322.571 148.750,322.571 149.184,326.563 149.618,333.216 150.052,332.551 150.486,332.551 150.920,332.551 151.354,334.547 151.788,337.873 152.222,337.873 152.656,339.869 153.090,340.535 153.524,338.539 153.958,339.204 154.392,340.535 154.826,339.869 155.260,337.873 155.694,335.212 156.128,334.547 156.562,331.886 156.996,335.212 157.430,334.547 157.864,333.882 158.298,335.212 158.732,332.551 159.166,329.890 159.600,329.224 160.034,329.890 160.468,331.220 160.902,330.555 161.336,331.220 161.770,330.555 162.204,327.894 162.638,327.894 163.072,325.898 163.506,320.576 163.940,319.910 164.374,321.906 164.808,325.233 165.242,326.563 165.676,330.555 166.110,329.890 166.544,331.886 166.978,331.886 167.412,327.894 167.846,324.567 168.280,323.902 168.714,324.567 169.148,321.906 169.582,319.245 170.016,318.580 170.450,317.249 170.884,318.580 171.318,315.918 171.752,317.914 172.186,321.906 172.620,325.898 173.054,326.563 173.488,324.567 173.922,320.576 174.356,314.588 174.790,313.922 175.224,311.927 175.658,311.261 176.092,309.931 176.526,312.592 176.960,315.253 177.394,315.918 177.828,315.253 178.262,315.918 178.696,315.253 179.130,316.584 179.564,314.588 179.998,309.265 180.432,313.257 180.866,313.922 181.300,311.927 181.734,313.257 182.168,313.922 182.602,315.253 183.036,313.922 183.470,319.910 183.904,317.914 184.338,319.910 184.772,321.241 185.206,321.241 185.640,318.580 186.074,319.910 186.508,322.571 186.942,321.906 187.376,323.237 187.810,321.241 188.244,319.910 188.678,322.571 189.112,324.567 189.546,327.229 189.980,328.559 190.414,330.555 190.848,328.559 191.282,323.902 191.716,323.902 192.150,325.233 192.584,326.563 193.018,324.567 193.452,322.571 193.886,321.906 194.320,323.902 194.754,326.563 195.188,327.894 195.622,327.894 196.056,329.224 196.490,327.894 196.924,329.890 197.358,328.559 197.792,326.563 198.226,329.890 198.660,329.224 199.094,329.224 199.528,324.567 199.962,319.910 200.396,319.910 200.830,317.914 201.264,317.249 201.698,315.253 202.132,319.910 202.566,322.571 203.000,323.237 203.434,321.906 203.868,319.910 204.302,315.253 204.736,315.253 205.170,315.253 205.604,317.249 206.038,317.914 206.472,317.249 206.906,318.580 207.340,312.592 207.774,311.261 208.208,309.931 208.642,311.927 209.076,315.918 209.510,319.245 209.944,321.241 210.378,325.233 210.812,325.898 211.246,325.233 211.680,323.237 212.114,320.576 212.548,319.910 212.982,319.910 213.416,323.237 213.850,324.567 214.284,323.237 214.718,322.571 215.152,324.567 215.586,327.229 216.020,325.233 216.454,329.890 216.888,330.555 217.322,331.220 217.756,333.882 218.190,334.547 218.624,333.882 219.058,335.212 219.492,334.547 219.926,333.882 220.360,335.212 220.794,335.212 221.228,337.873 221.662,336.543 222.096,337.873 222.530,331.220 222.964,326.563 223.398,324.567 223.832,325.233 224.266,321.906 224.700,322.571 225.134,325.898 225.568,326.563 226.002,323.902 226.436,322.571 226.870,318.580 227.304,315.918 227.738,310.596 228.172,308.600 228.606,306.604 229.040,307.935 229.474,307.269 229.908,305.273 230.342,304.608 230.776,304.608 231.210,300.616 231.644,305.273 232.078,304.608 232.512,305.939 232.946,304.608 233.380,305.273 233.814,303.278 234.248,303.943 234.682,304.608 235.116,307.269 235.550,309.265 235.984,313.257 236.418,316.584 236.852,322.571 237.286,322.571 237.720,321.906 238.154,319.910 238.588,315.253 239.022,315.253 239.456,312.592 239.890,315.918 240.324,319.910 240.758,322.571 241.192,327.229 241.626,327.894 242.060,325.233 242.494,325.898 242.928,326.563 243.362,323.237 243.796,317.914 244.230,316.584 244.664,313.922 245.098,313.922 245.532,311.927 245.966,311.927 246.400,309.931 246.834,309.265 247.268,306.604 247.702,305.273 248.136,305.939 248.570,306.604 249.004,307.269 249.438,303.943 249.872,301.282 250.306,297.955 250.740,295.959 251.174,298.620 251.608,298.620 252.042,295.294 252.476,293.298 252.910,298.620 253.344,297.955 253.778,299.286 254.212,295.959 254.646,296.624 255.080,293.963 255.514,292.633 255.948,295.959 256.382,299.286 256.816,304.608 257.250,303.943 257.684,301.947 258.118,296.624 258.552,295.959 258.986,298.620 259.420,301.947 259.854,304.608 260.288,306.604 260.722,309.265 261.156,312.592 261.590,317.249 262.024,315.918 262.458,315.253 262.892,313.257 263.326,313.922 263.760,315.253 264.194,315.918 264.628,319.245 265.062,320.576 265.496,320.576 265.930,317.914 266.364,319.245 266.798,321.906 267.232,324.567 267.666,327.894 268.100,327.894 268.534,324.567 268.968,324.567 269.402,322.571 269.836,320.576 270.270,318.580 270.704,317.249 271.138,317.249 271.572,321.241 272.006,322.571 272.440,323.902 272.874,324.567 273.308,327.229 273.742,327.229 274.176,324.567 274.610,323.237 275.044,324.567 275.478,323.237 275.912,324.567 276.346,324.567 276.780,325.898 277.214,325.233 277.648,326.563 278.082,325.898 278.516,325.898 278.950,324.567 279.384,325.898 279.818,325.898 280.252,323.902 280.686,317.914 281.120,319.245 281.554,320.576 281.988,321.241 282.422,319.910 282.856,322.571 283.290,323.237 283.724,325.898 284.158,327.894 284.592,331.220 285.026,327.894 285.460,329.224 285.894,327.894 286.328,325.233 286.762,325.898 287.196,324.567 287.630,323.902 288.064,325.898 288.498,325.898 288.932,324.567 289.366,327.229 289.800,331.220 290.234,329.224 290.668,327.894 291.102,325.233 291.536,326.563 291.970,323.902 292.404,325.233 292.838,325.898 293.272,321.241 293.706,319.245 294.140,321.906 294.574,320.576 295.008,319.245 295.442,321.241 295.876,319.910 296.310,317.914 296.744,319.245 297.178,318.580 297.612,319.910 298.046,321.241 298.480,319.910 298.914,320.576 299.348,323.237 299.782,321.906 300.216,319.245 300.650,317.249 301.084,319.245 301.518,319.245 301.952,317.249 302.386,318.580 302.820,317.249 303.254,317.914 303.688,319.910 304.122,319.910 304.556,319.910 304.990,319.910 305.424,321.906 305.858,319.910 306.292,319.245 306.726,317.914 307.160,319.910 307.594,322.571 308.028,321.241 308.462,320.576 308.896,322.571 309.330,322.571 309.764,322.571 310.198,319.245 310.632,317.249 311.066,316.584 311.500,317.249 311.934,317.914 312.368,319.245 312.802,319.245 313.236,321.906 313.670,322.571 314.104,326.563 314.538,329.224 314.972,328.559 315.406,323.902 315.840,319.245 316.274,310.596 316.708,304.608 317.142,304.608 317.576,303.278 318.010,303.943 318.444,307.935 318.878,307.269 319.312,308.600 319.746,309.931 320.180,305.939 320.614,305.273 321.048,305.273 321.482,301.282 321.916,299.286 322.350,298.620 322.784,298.620 323.218,295.959 323.652,296.624 324.086,295.959 324.520,299.951 324.954,303.278 325.388,308.600 325.822,307.269 326.256,305.273 326.690,305.273 327.124,303.278 327.558,303.278 327.992,304.608 328.426,305.273 328.860,303.943 329.294,306.604 329.728,307.269 330.162,308.600 330.596,311.927 331.030,314.588 331.464,316.584 331.898,316.584 332.332,317.914 332.766,317.249 333.200,319.245 333.634,317.914 334.068,318.580 334.502,320.576 334.936,322.571 335.370,321.241 335.804,321.241 336.238,320.576 336.672,316.584 337.106,315.253 337.540,314.588 337.974,313.257 338.408,313.922 338.842,316.584 339.276,314.588 339.710,312.592 340.144,310.596 340.578,308.600 341.012,308.600 341.446,307.269 341.880,306.604 342.314,307.269 342.748,311.261 343.182,309.931 343.616,310.596 344.050,315.253 344.484,319.245 344.918,321.241 345.352,323.237 345.786,327.229 346.220,327.229 346.654,325.898 347.088,323.237 347.522,324.567 347.956,325.233 348.390,327.229 348.824,325.233 349.258,323.237 349.692,323.237 350.126,319.910 350.560,318.580 350.994,314.588 351.428,314.588 351.862,311.927 352.296,315.253 352.730,313.257 353.164,311.261 353.598,310.596 354.032,311.261 354.466,312.592 354.900,313.922 355.334,317.249 355.768,321.241 356.202,327.894 356.636,325.898 357.070,325.233 357.504,325.898 357.938,326.563 358.372,329.224 358.806,330.555 359.240,334.547 359.674,333.882 360.108,335.212 360.542,335.878 360.976,337.873 361.410,331.886 361.844,333.882 362.278,333.882 362.712,329.890 363.146,325.233 363.580,323.237 364.014,318.580 364.448,318.580 364.882,318.580 365.316,316.584 365.750,319.245 366.184,317.914 366.618,317.249 367.052,319.245 367.486,319.245 367.920,317.914 368.354,317.914 368.788,319.245 369.222,320.576 369.656,317.914 370.090,317.914 370.524,321.906 370.958,319.245 371.392,319.910 371.826,322.571 372.260,323.237 372.694,319.245 373.128,318.580 373.562,314.588 373.996,308.600 374.430,309.931 374.864,303.943 375.298,301.282 375.732,300.616 376.166,300.616 376.600,301.947 377.034,301.947 377.468,301.282 377.902,302.612 378.336,301.282 378.770,302.612 379.204,297.955 379.638,299.286 380.072,300.616 380.506,301.947 380.940,304.608 381.374,307.935 381.808,311.927 382.242,314.588 382.676,315.253 383.110,319.245 383.544,316.584 383.978,321.906 384.412,323.902 384.846,326.563 385.280,322.571 385.714,321.906 386.148,319.910 386.582,321.906 387.016,319.910 387.450,320.576 387.884,323.237 388.318,327.894 388.752,327.894 389.186,325.233 389.620,320.576 390.054,317.914 390.488,315.253 390.922,316.584 391.356,318.580 391.790,317.914 392.224,319.910 392.658,320.576 393.092,320.576 393.526,316.584 393.960,310.596 394.394,315.253 394.828,313.257 395.262,315.253 395.696,312.592 396.130,313.257 396.564,311.261 396.998,308.600 397.432,306.604 397.866,304.608 398.300,305.273 398.734,307.269 399.168,310.596 399.602,307.935 400.036,303.943 400.470,299.951 400.904,298.620 401.338,296.624 401.772,296.624 402.206,296.624 402.640,299.951 403.074,303.943 403.508,299.286 403.942,298.620 404.376,295.959 404.810,293.963 405.244,295.294 405.678,300.616 406.112,297.290 406.546,297.955 406.980,298.620 407.414,299.951 407.848,299.286 408.282,293.963 408.716,295.294 409.150,297.955 409.584,301.282 410.018,303.943 410.452,303.943 410.886,301.947 411.320,299.286 411.754,300.616 412.188,300.616 412.622,304.608 413.056,304.608 413.490,306.604 413.924,308.600 414.358,307.269 414.792,306.604 415.226,308.600 415.660,306.604 416.094,308.600 416.528,308.600 416.962,310.596 417.396,315.918 417.830,319.910 418.264,319.910 418.698,319.245 419.132,321.241 419.566,319.910 420.000,320.576 420.434,323.237 420.868,323.237 421.302,323.902 421.736,325.898 422.170,327.894 422.604,329.224 423.038,329.890 423.472,329.890 423.906,326.563 424.340,329.890 424.774,333.882 425.208,334.547 425.642,333.882 426.076,334.547 426.510,333.882 426.944,331.886 427.378,327.894 427.812,326.563 428.246,326.563 428.680,329.890 429.114,329.224 429.548,324.567 429.982,324.567 430.416,323.902 430.850,323.902 431.284,325.233 431.718,325.233 432.152,323.237 432.586,321.906 433.020,323.237 433.454,322.571 433.888,320.576 434.322,319.245 434.756,320.576 435.190,319.245 435.624,317.914 436.058,319.910 436.492,321.241 436.926,323.237 437.360,319.245 437.794,317.914 438.228,318.580 438.662,320.576 439.096,321.906 439.530,321.906 439.964,319.245 440.398,316.584 440.832,314.588 441.266,315.253 441.700,316.584 442.134,317.249 442.568,315.918 443.002,318.580 443.436,318.580 443.870,316.584 444.304,316.584 444.738,315.918 445.172,313.257 445.606,315.918 446.040,313.922 446.474,315.253 446.908,316.584 447.342,318.580 447.776,321.906 448.210,321.906 448.644,320.576 449.078,322.571 449.512,323.902 449.946,325.898 450.380,326.563 450.814,327.229 451.248,328.559 451.682,325.898 452.116,320.576 452.550,316.584 452.984,318.580 453.418,318.580 453.852,319.245 454.286,318.580 454.720,319.910 455.154,321.906 455.588,325.233 456.022,321.906 456.456,323.237 456.890,319.910 457.324,318.580 457.758,320.576 458.192,319.245 458.626,316.584 459.060,315.253 459.494,314.588 459.928,315.253 460.362,311.927 460.796,311.261 461.230,312.592 461.664,314.588 462.098,313.922 462.532,311.927 462.966,308.600 463.400,308.600 463.834,307.269 464.268,306.604 464.702,306.604 465.136,308.600 465.570,307.269 466.004,310.596 466.438,311.927 466.872,309.931 467.306,310.596 467.740,306.604 468.174,303.943 468.608,297.290 469.042,292.633 469.476,293.298 469.910,296.624 470.344,297.955 470.778,299.951 471.212,294.629 471.646,293.298 472.080,295.959 472.514,292.633 472.948,292.633 473.382,289.971 473.816,288.641 474.250,288.641 474.684,289.306 475.118,287.310 475.552,285.980 475.986,285.980 476.420,281.988 476.854,283.318 477.288,281.988 477.722,289.306 478.156,293.963 478.590,295.294 479.024,295.959 479.458,295.959 479.892,295.294 480.326,300.616 480.760,300.616 481.194,302.612 481.628,306.604 482.062,303.278 482.496,301.282 482.930,299.951 483.364,299.286 483.798,299.286 484.232,301.282 484.666,301.947 485.100,301.947 485.534,303.943 485.968,307.935 486.402,309.931 486.836,307.935 487.270,306.604 487.704,305.939 488.138,303.278 488.572,304.608 489.006,305.273 489.440,305.273 489.874,309.931 490.308,311.261 490.742,313.922 491.176,317.249 491.610,323.237 492.044,324.567 492.478,326.563 492.912,323.902 493.346,319.910 493.780,316.584 494.214,317.249 494.648,317.914 495.082,315.918 495.516,315.253 495.950,317.249 496.384,316.584 496.818,318.580 497.252,321.241 497.686,319.910 498.120,316.584 498.554,316.584 498.988,315.918 499.422,315.253 499.856,314.588 500.290,315.253 500.724,313.922 501.158,313.257 501.592,302.612 502.026,300.616 502.460,301.282 502.894,302.472 503.328,303.943 503.762,305.806 504.196,302.868 504.630,298.862 505.064,300.838 505.498,287.976 505.932,264.823 506.366,220.114 506.800,276.000 "/>
<g>
</g>
</g>
<g id="ID000003" clip-path="url(#ID000001)" >
      <polyline fill="none" stroke="#0000ff" stroke-width="0.5pt" stroke-dasharray="none" points="73.234,359.829 73.668,331.886 74.102,320.709 74.536,319.910 74.970,314.810 75.404,317.914 75.838,313.615 76.272,308.600 76.706,309.696 77.140,312.032 77.574,312.592 78.008,312.592 78.442,312.592 78.876,311.927 79.310,309.931 79.744,311.261 80.178,309.265 80.612,311.261 81.046,313.257 81.480,308.600 81.914,309.265 82.348,305.939 82.782,304.608 83.216,306.604 83.650,312.592 84.084,309.931 84.518,310.596 84.952,311.261 85.386,312.592 85.820,312.592 86.254,312.592 86.688,307.269 87.122,304.608 87.556,305.273 87.990,309.265 88.424,312.592 88.858,313.257 89.292,311.261 89.726,307.935 90.160,311.261 90.594,316.584 91.028,315.253 91.462,316.584 91.896,316.584 92.330,317.249 92.764,310.596 93.198,308.600 93.632,307.269 94.066,306.604 94.500,305.939 94.934,302.612 95.368,301.282 95.802,307.269 96.236,307.935 96.670,307.269 97.104,303.278 97.538,303.278 97.972,302.612 98.406,307.269 98.840,309.265 99.274,309.265 99.708,309.265 100.142,307.935 100.576,307.935 101.010,308.600 101.444,308.600 101.878,315.918 102.312,320.576 102.746,321.241 103.180,319.245 103.614,316.584 104.048,316.584 104.482,317.249 104.916,319.910 105.350,317.249 105.784,312.592 106.218,311.927 106.652,309.931 107.086,311.927 107.520,312.592 107.954,313.922 108.388,311.927 108.822,310.596 109.256,310.596 109.690,311.927 110.124,314.588 110.558,314.588 110.992,314.588 111.426,315.253 111.860,315.253 112.294,312.592 112.728,313.257 113.162,315.918 113.596,311.261 114.030,308.600 114.464,309.265 114.898,311.261 115.332,310.596 115.766,311.927 116.200,309.265 116.634,307.269 117.068,303.943 117.502,303.278 117.936,302.612 118.370,305.273 118.804,307.269 119.238,304.608 119.672,301.282 120.106,301.947 120.540,301.282 120.974,301.282 121.408,305.273 121.842,307.935 122.276,301.282 122.710,303.278 123.144,303.278 123.578,301.947 124.012,303.278 124.446,303.278 124.880,300.616 125.314,293.963 125.748,290.637 126.182,294.629 126.616,291.302 127.050,293.298 127.484,292.633 127.918,289.306 128.352,289.971 128.786,294.629 129.220,291.967 129.654,290.637 130.088,292.633 130.522,293.298 130.956,293.298 131.390,297.290 131.824,296.624 132.258,297.290 132.692,297.290 133.126,297.955 133.560,299.286 133.994,301.282 134.428,306.604 134.862,309.931 135.296,305.273 135.730,308.600 136.164,307.269 136.598,304.608 137.032,304.608 137.466,303.278 137.900,301.282 138.334,301.282 138.768,301.282 139.202,299.951 139.636,299.951 140.070,294.629 140.504,290.637 140.938,295.294 141.372,295.959 141.806,298.620 142.240,297.290 142.674,296.624 143.108,297.290 143.542,296.624 143.976,296.624 144.410,297.955 144.844,298.620 145.278,299.951 145.712,303.943 146.146,302.612 146.580,303.278 147.014,303.943 147.448,305.273 147.882,303.278 148.316,304.608 148.750,303.943 149.184,309.931 149.618,317.249 150.052,312.592 150.486,311.261 150.920,313.257 151.354,316.584 151.788,319.245 152.222,316.584 152.656,318.580 153.090,316.584 153.524,314.588 153.958,312.592 154.392,311.261 154.826,309.265 155.260,309.265 155.694,305.273 156.128,303.943 156.562,296.624 156.996,300.616 157.430,295.959 157.864,295.294 158.298,295.294 158.732,289.306 159.166,289.306 159.600,289.306 160.034,289.306 160.468,289.306 160.902,288.641 161.336,292.633 161.770,295.294 162.204,291.967 162.638,291.302 163.072,293.963 163.506,293.963 163.940,293.963 164.374,299.286 164.808,306.604 165.242,309.265 165.676,317.249 166.110,317.249 166.544,321.241 166.978,323.237 167.412,323.237 167.846,326.563 168.280,329.890 168.714,332.551 169.148,329.890 169.582,329.890 170.016,330.555 170.450,329.224 170.884,329.224 171.318,331.886 171.752,335.212 172.186,335.212 172.620,335.212 173.054,337.208 173.488,333.216 173.922,329.224 174.356,325.233 174.790,323.902 175.224,322.571 175.658,323.902 176.092,321.241 176.526,322.571 176.960,321.241 177.394,316.584 177.828,312.592 178.262,313.257 178.696,309.931 179.130,309.931 179.564,305.939 179.998,299.951 180.432,299.951 180.866,298.620 181.300,295.294 181.734,294.629 182.168,293.963 182.602,295.294 183.036,291.967 183.470,293.963 183.904,291.967 184.338,289.971 184.772,289.306 185.206,290.637 185.640,287.976 186.074,288.641 186.508,291.967 186.942,293.298 187.376,294.629 187.810,292.633 188.244,291.302 188.678,294.629 189.112,297.955 189.546,302.612 189.980,307.269 190.414,311.261 190.848,313.922 191.282,312.592 191.716,313.922 192.150,317.249 192.584,319.245 193.018,317.249 193.452,315.918 193.886,313.922 194.320,314.588 194.754,313.922 195.188,315.918 195.622,317.249 196.056,319.245 196.490,319.245 196.924,319.910 197.358,319.910 197.792,321.241 198.226,323.237 198.660,322.571 199.094,321.241 199.528,316.584 199.962,309.265 200.396,306.604 200.830,301.947 201.264,301.282 201.698,297.955 202.132,304.608 202.566,309.265 203.000,311.927 203.434,309.265 203.868,309.265 204.302,305.939 204.736,305.939 205.170,305.939 205.604,306.604 206.038,310.596 206.472,307.935 206.906,303.943 207.340,296.624 207.774,295.294 208.208,294.629 208.642,299.951 209.076,303.943 209.510,305.273 209.944,307.935 210.378,309.931 210.812,312.592 211.246,311.927 211.680,309.265 212.114,303.278 212.548,303.943 212.982,303.278 213.416,306.604 213.850,306.604 214.284,304.608 214.718,301.282 215.152,301.282 215.586,303.278 216.020,301.947 216.454,306.604 216.888,307.269 217.322,305.273 217.756,302.612 218.190,301.947 218.624,304.608 219.058,306.604 219.492,307.935 219.926,305.273 220.360,301.947 220.794,301.947 221.228,305.939 221.662,306.604 222.096,309.931 222.530,308.600 222.964,308.600 223.398,307.935 223.832,310.596 224.266,309.931 224.700,313.257 225.134,319.910 225.568,322.571 226.002,320.576 226.436,321.906 226.870,321.241 227.304,321.241 227.738,319.245 228.172,317.914 228.606,315.253 229.040,318.580 229.474,320.576 229.908,319.245 230.342,319.910 230.776,317.249 231.210,316.584 231.644,317.249 232.078,314.588 232.512,313.922 232.946,313.257 233.380,314.588 233.814,312.592 234.248,310.596 234.682,309.931 235.116,312.592 235.550,313.257 235.984,314.588 236.418,313.257 236.852,309.265 237.286,308.600 237.720,305.939 238.154,302.612 238.588,299.951 239.022,298.620 239.456,293.963 239.890,295.959 240.324,293.298 240.758,294.629 241.192,295.959 241.626,300.616 242.060,297.955 242.494,296.624 242.928,295.294 243.362,291.967 243.796,288.641 244.230,285.980 244.664,281.322 245.098,279.992 245.532,278.661 245.966,281.322 246.400,279.327 246.834,279.992 247.268,281.322 247.702,281.988 248.136,282.653 248.570,286.645 249.004,289.971 249.438,287.976 249.872,283.984 250.306,279.327 250.740,272.008 251.174,274.004 251.608,270.678 252.042,268.682 252.476,271.343 252.910,276.000 253.344,273.339 253.778,276.665 254.212,277.331 254.646,277.331 255.080,278.661 255.514,281.322 255.948,282.653 256.382,285.314 256.816,288.641 257.250,289.971 257.684,288.641 258.118,284.649 258.552,283.984 258.986,287.976 259.420,292.633 259.854,297.955 260.288,300.616 260.722,305.939 261.156,309.265 261.590,309.931 262.024,309.265 262.458,310.596 262.892,309.931 263.326,310.596 263.760,316.584 264.194,314.588 264.628,316.584 265.062,317.914 265.496,314.588 265.930,306.604 266.364,305.273 266.798,302.612 267.232,303.278 267.666,304.608 268.100,301.282 268.534,300.616 268.968,299.951 269.402,298.620 269.836,295.959 270.270,291.967 270.704,290.637 271.138,290.637 271.572,295.959 272.006,296.624 272.440,297.955 272.874,297.955 273.308,302.612 273.742,299.951 274.176,299.286 274.610,298.620 275.044,301.282 275.478,300.616 275.912,305.273 276.346,308.600 276.780,312.592 277.214,314.588 277.648,311.927 278.082,311.261 278.516,311.261 278.950,311.261 279.384,313.257 279.818,313.257 280.252,305.939 280.686,298.620 281.120,298.620 281.554,299.286 281.988,296.624 282.422,296.624 282.856,299.286 283.290,300.616 283.724,302.612 284.158,303.278 284.592,306.604 285.026,303.278 285.460,300.616 285.894,298.620 286.328,295.959 286.762,300.616 287.196,297.290 287.630,294.629 288.064,295.959 288.498,294.629 288.932,295.294 289.366,303.278 289.800,306.604 290.234,307.935 290.668,304.608 291.102,305.939 291.536,303.943 291.970,301.282 292.404,300.616 292.838,302.612 293.272,302.612 293.706,302.612 294.140,303.278 294.574,299.286 295.008,292.633 295.442,295.294 295.876,295.294 296.310,297.955 296.744,302.612 297.178,303.278 297.612,307.935 298.046,307.269 298.480,306.604 298.914,309.931 299.348,309.931 299.782,312.592 300.216,311.261 300.650,308.600 301.084,311.927 301.518,314.588 301.952,308.600 302.386,307.935 302.820,307.935 303.254,311.927 303.688,318.580 304.122,326.563 304.556,324.567 304.990,323.237 305.424,322.571 305.858,317.914 306.292,313.922 306.726,312.592 307.160,315.253 307.594,315.918 308.028,312.592 308.462,313.922 308.896,313.922 309.330,309.931 309.764,311.261 310.198,306.604 310.632,301.282 311.066,305.273 311.500,306.604 311.934,306.604 312.368,307.269 312.802,306.604 313.236,307.935 313.670,311.927 314.104,313.922 314.538,318.580 314.972,319.910 315.406,319.245 315.840,319.910 316.274,315.918 316.708,309.931 317.142,311.927 317.576,311.261 318.010,310.596 318.444,316.584 318.878,317.914 319.312,319.910 319.746,325.233 320.180,323.237 320.614,324.567 321.048,322.571 321.482,317.249 321.916,315.918 322.350,316.584 322.784,314.588 323.218,313.257 323.652,309.931 324.086,307.935 324.520,309.931 324.954,307.269 325.388,307.269 325.822,306.604 326.256,303.943 326.690,301.947 327.124,301.947 327.558,301.282 327.992,301.947 328.426,301.282 328.860,298.620 329.294,301.282 329.728,303.278 330.162,305.273 330.596,306.604 331.030,305.939 331.464,305.273 331.898,303.943 332.332,301.947 332.766,303.278 333.200,305.939 333.634,305.273 334.068,304.608 334.502,307.269 334.936,312.592 335.370,313.257 335.804,315.918 336.238,313.922 336.672,312.592 337.106,313.257 337.540,312.592 337.974,311.261 338.408,309.265 338.842,308.600 339.276,307.935 339.710,308.600 340.144,308.600 340.578,307.269 341.012,310.596 341.446,313.257 341.880,313.922 342.314,313.257 342.748,315.253 343.182,317.914 343.616,317.249 344.050,317.249 344.484,319.910 344.918,319.910 345.352,320.576 345.786,321.241 346.220,319.910 346.654,321.241 347.088,322.571 347.522,321.241 347.956,321.241 348.390,321.241 348.824,319.245 349.258,318.580 349.692,319.245 350.126,315.253 350.560,312.592 350.994,305.939 351.428,307.935 351.862,305.273 352.296,306.604 352.730,305.939 353.164,304.608 353.598,303.943 354.032,303.943 354.466,305.273 354.900,306.604 355.334,308.600 355.768,310.596 356.202,311.261 356.636,312.592 357.070,311.927 357.504,313.257 357.938,315.918 358.372,316.584 358.806,316.584 359.240,317.249 359.674,319.910 360.108,320.576 360.542,315.253 360.976,315.918 361.410,309.265 361.844,312.592 362.278,313.922 362.712,309.931 363.146,306.604 363.580,303.943 364.014,301.282 364.448,300.616 364.882,299.951 365.316,299.286 365.750,302.612 366.184,303.278 366.618,301.947 367.052,302.612 367.486,303.943 367.920,304.608 368.354,308.600 368.788,305.273 369.222,307.269 369.656,309.265 370.090,313.257 370.524,318.580 370.958,316.584 371.392,315.253 371.826,317.914 372.260,317.914 372.694,315.253 373.128,315.253 373.562,311.261 373.996,305.939 374.430,309.265 374.864,304.608 375.298,301.947 375.732,303.278 376.166,304.608 376.600,303.943 377.034,303.943 377.468,301.947 377.902,305.939 378.336,305.273 378.770,306.604 379.204,303.278 379.638,305.273 380.072,304.608 380.506,305.273 380.940,306.604 381.374,309.265 381.808,315.253 382.242,315.918 382.676,317.914 383.110,319.245 383.544,315.253 383.978,318.580 384.412,319.910 384.846,321.906 385.280,319.910 385.714,317.914 386.148,313.922 386.582,315.918 387.016,314.588 387.450,317.249 387.884,319.910 388.318,320.576 388.752,318.580 389.186,317.914 389.620,317.249 390.054,316.584 390.488,315.253 390.922,316.584 391.356,319.910 391.790,321.906 392.224,326.563 392.658,325.898 393.092,325.898 393.526,325.898 393.960,323.902 394.394,325.898 394.828,327.894 395.262,329.890 395.696,326.563 396.130,329.224 396.564,328.559 396.998,325.898 397.432,326.563 397.866,325.898 398.300,326.563 398.734,327.894 399.168,329.224 399.602,329.224 400.036,327.229 400.470,324.567 400.904,321.906 401.338,317.914 401.772,318.580 402.206,319.910 402.640,318.580 403.074,319.910 403.508,318.580 403.942,318.580 404.376,319.245 404.810,317.914 405.244,315.918 405.678,318.580 406.112,319.245 406.546,319.245 406.980,319.910 407.414,320.576 407.848,319.245 408.282,318.580 408.716,318.580 409.150,318.580 409.584,316.584 410.018,317.914 410.452,321.241 410.886,323.237 411.320,321.906 411.754,323.237 412.188,319.910 412.622,318.580 413.056,317.914 413.490,317.914 413.924,320.576 414.358,315.918 414.792,314.588 415.226,309.265 415.660,305.273 416.094,307.935 416.528,307.269 416.962,307.269 417.396,307.935 417.830,307.269 418.264,303.278 418.698,305.273 419.132,307.935 419.566,306.604 420.000,301.947 420.434,300.616 420.868,301.947 421.302,305.939 421.736,306.604 422.170,307.935 422.604,304.608 423.038,303.943 423.472,302.612 423.906,301.947 424.340,309.265 424.774,312.592 425.208,311.927 425.642,311.927 426.076,314.588 426.510,313.922 426.944,314.588 427.378,316.584 427.812,317.249 428.246,313.257 428.680,315.918 429.114,317.249 429.548,314.588 429.982,312.592 430.416,309.931 430.850,312.592 431.284,313.257 431.718,317.249 432.152,316.584 432.586,321.906 433.020,322.571 433.454,319.910 433.888,319.910 434.322,317.914 434.756,315.253 435.190,313.257 435.624,313.257 436.058,314.588 436.492,315.918 436.926,316.584 437.360,313.922 437.794,312.592 438.228,314.588 438.662,315.918 439.096,317.914 439.530,317.914 439.964,314.588 440.398,312.592 440.832,309.931 441.266,306.604 441.700,304.608 442.134,307.269 442.568,307.269 443.002,309.931 443.436,309.265 443.870,309.265 444.304,309.265 444.738,307.269 445.172,301.947 445.606,297.955 446.040,293.963 446.474,294.629 446.908,293.963 447.342,291.967 447.776,291.967 448.210,292.633 448.644,292.633 449.078,293.298 449.512,295.959 449.946,298.620 450.380,301.282 450.814,299.286 451.248,298.620 451.682,297.290 452.116,292.633 452.550,284.649 452.984,285.314 453.418,282.653 453.852,281.988 454.286,285.980 454.720,291.967 455.154,295.294 455.588,301.282 456.022,300.616 456.456,302.612 456.890,303.943 457.324,301.947 457.758,299.951 458.192,299.951 458.626,295.294 459.060,293.963 459.494,294.629 459.928,297.955 460.362,291.302 460.796,287.976 461.230,286.645 461.664,292.633 462.098,290.637 462.532,287.976 462.966,285.314 463.400,285.980 463.834,282.653 464.268,280.657 464.702,278.661 465.136,279.327 465.570,278.661 466.004,280.657 466.438,281.988 466.872,283.984 467.306,284.649 467.740,285.314 468.174,279.992 468.608,274.669 469.042,273.339 469.476,277.996 469.910,283.318 470.344,288.641 470.778,293.298 471.212,295.294 471.646,299.286 472.080,302.612 472.514,297.955 472.948,299.951 473.382,300.616 473.816,301.947 474.250,300.616 474.684,302.612 475.118,297.290 475.552,296.624 475.986,295.959 476.420,294.629 476.854,293.298 477.288,295.294 477.722,298.620 478.156,299.951 478.590,299.286 479.024,297.955 479.458,290.637 479.892,288.641 480.326,287.976 480.760,284.649 481.194,287.310 481.628,291.967 482.062,289.971 482.496,287.976 482.930,286.645 483.364,289.306 483.798,289.971 484.232,295.294 484.666,295.294 485.100,293.963 485.534,293.298 485.968,293.298 486.402,291.967 486.836,293.298 487.270,290.637 487.704,292.633 488.138,290.637 488.572,295.294 489.006,293.963 489.440,297.955 489.874,304.608 490.308,305.939 490.742,305.939 491.176,307.935 491.610,309.265 492.044,308.600 492.478,307.269 492.912,304.608 493.346,299.951 493.780,295.294 494.214,295.959 494.648,297.290 495.082,298.620 495.516,299.951 495.950,300.616 496.384,303.278 496.818,301.947 497.252,306.604 497.686,307.935 498.120,309.265 498.554,307.935 498.988,303.278 499.422,302.612 499.856,303.943 500.290,304.608 500.724,308.600 501.158,308.600 501.592,302.612 502.026,300.616 502.460,297.955 502.894,302.472 503.328,303.121 503.762,306.737 504.196,306.092 504.630,300.132 505.064,296.181 505.498,291.967 505.932,267.617 506.366,215.457 506.800,192.171 "/>
<g>
</g>
</g>
<g id="ID000004" clip-path="url(#ID000001)" >
      <polyline fill="none" stroke="#000000" stroke-width="0.5pt" stroke-dasharray="none" points="73.234,303.943 73.668,271.343 74.102,253.646 74.536,254.045 74.970,252.714 75.404,264.569 75.838,257.730 76.272,253.646 76.706,257.097 77.140,259.823 77.574,262.029 78.008,262.694 78.442,264.690 78.876,264.690 79.310,264.690 79.744,268.016 80.178,262.029 80.612,267.351 81.046,271.343 81.480,264.024 81.914,264.690 82.348,258.702 82.782,258.037 83.216,261.363 83.650,268.682 84.084,262.694 84.518,263.359 84.952,264.024 85.386,266.686 85.820,268.016 86.254,269.347 86.688,260.698 87.122,254.710 87.556,255.376 87.990,260.698 88.424,262.694 88.858,263.359 89.292,261.363 89.726,251.384 90.160,255.376 90.594,262.694 91.028,257.371 91.462,256.706 91.896,254.045 92.330,256.041 92.764,246.727 93.198,244.065 93.632,242.735 94.066,244.065 94.500,241.404 94.934,238.078 95.368,233.420 95.802,240.739 96.236,244.731 96.670,244.065 97.104,237.412 97.538,239.408 97.972,234.751 98.406,243.400 98.840,251.384 99.274,252.049 99.708,252.049 100.142,248.722 100.576,249.388 101.010,249.388 101.444,247.392 101.878,256.706 102.312,264.690 102.746,262.694 103.180,257.371 103.614,253.380 104.048,251.384 104.482,253.380 104.916,260.033 105.350,254.045 105.784,245.396 106.218,243.400 106.652,240.073 107.086,246.061 107.520,248.057 107.954,248.057 108.388,244.731 108.822,241.404 109.256,244.731 109.690,245.396 110.124,252.049 110.558,253.380 110.992,254.710 111.426,251.384 111.860,248.722 112.294,240.739 112.728,239.408 113.162,244.731 113.596,236.747 114.030,232.755 114.464,234.751 114.898,238.078 115.332,236.082 115.766,238.078 116.200,232.090 116.634,230.094 117.068,226.767 117.502,224.771 117.936,225.437 118.370,229.429 118.804,234.751 119.238,231.424 119.672,224.771 120.106,224.771 120.540,227.433 120.974,231.424 121.408,240.073 121.842,246.727 122.276,235.416 122.710,238.743 123.144,238.078 123.578,234.751 124.012,236.747 124.446,234.751 124.880,226.767 125.314,214.127 125.748,207.473 126.182,212.131 126.616,204.147 127.050,206.808 127.484,206.143 127.918,201.486 128.352,202.151 128.786,210.135 129.220,206.143 129.654,204.147 130.088,206.143 130.522,207.473 130.956,208.804 131.390,214.127 131.824,211.465 132.258,212.131 132.692,212.796 133.126,212.131 133.560,215.457 133.994,223.441 134.428,234.751 134.862,241.404 135.296,236.747 135.730,245.396 136.164,243.400 136.598,238.743 137.032,238.078 137.466,237.412 137.900,235.416 138.334,236.082 138.768,237.412 139.202,236.747 139.636,238.743 140.070,228.763 140.504,222.110 140.938,231.424 141.372,233.420 141.806,240.073 142.240,240.739 142.674,241.404 143.108,242.735 143.542,242.735 143.976,242.069 144.410,242.069 144.844,242.069 145.278,244.065 145.712,251.384 146.146,253.380 146.580,254.045 147.014,254.710 147.448,256.706 147.882,252.714 148.316,253.380 148.750,252.714 149.184,262.694 149.618,276.665 150.052,271.343 150.486,270.012 150.920,272.008 151.354,277.331 151.788,283.318 152.222,280.657 152.656,284.649 153.090,283.318 153.524,279.327 153.958,277.996 154.392,277.996 154.826,275.335 155.260,273.339 155.694,266.686 156.128,264.690 156.562,254.710 156.996,262.029 157.430,256.706 157.864,255.376 158.298,256.706 158.732,248.057 159.166,245.396 159.600,244.731 160.034,245.396 160.468,246.727 160.902,245.396 161.336,250.053 161.770,252.049 162.204,246.061 162.638,245.396 163.072,246.061 163.506,240.739 163.940,240.073 164.374,247.392 164.808,258.037 165.242,262.029 165.676,274.004 166.110,273.339 166.544,279.327 166.978,281.322 167.412,277.331 167.846,277.331 168.280,279.992 168.714,283.318 169.148,277.996 169.582,275.335 170.016,275.335 170.450,272.673 170.884,274.004 171.318,274.004 171.752,279.327 172.186,283.318 172.620,287.310 173.054,289.971 173.488,283.984 173.922,276.000 174.356,266.020 174.790,264.024 175.224,260.698 175.658,261.363 176.092,257.371 176.526,261.363 176.960,262.694 177.394,258.702 177.828,254.045 178.262,255.376 178.696,251.384 179.130,252.714 179.564,246.727 179.998,235.416 180.432,239.408 180.866,238.743 181.300,233.420 181.734,234.086 182.168,234.086 182.602,236.747 183.036,232.090 183.470,240.073 183.904,236.082 184.338,236.082 184.772,236.747 185.206,238.078 185.640,232.755 186.074,234.751 186.508,240.739 186.942,241.404 187.376,244.065 187.810,240.073 188.244,237.412 188.678,243.400 189.112,248.722 189.546,256.041 189.980,262.029 190.414,268.016 190.848,268.682 191.282,262.694 191.716,264.024 192.150,268.682 192.584,272.008 193.018,268.016 193.452,264.690 193.886,262.029 194.320,264.690 194.754,266.686 195.188,270.012 195.622,271.343 196.056,274.669 196.490,273.339 196.924,276.000 197.358,274.669 197.792,274.004 198.226,279.327 198.660,277.996 199.094,276.665 199.528,267.351 199.962,255.376 200.396,252.714 200.830,246.061 201.264,244.731 201.698,239.408 202.132,250.718 202.566,258.037 203.000,261.363 203.434,257.371 203.868,255.376 204.302,247.392 204.736,247.392 205.170,247.392 205.604,250.053 206.038,254.710 206.472,251.384 206.906,248.722 207.340,235.416 207.774,232.755 208.208,230.759 208.642,238.078 209.076,246.061 209.510,250.718 209.944,255.376 210.378,261.363 210.812,264.690 211.246,263.359 211.680,258.702 212.114,250.053 212.548,250.053 212.982,249.388 213.416,256.041 213.850,257.371 214.284,254.045 214.718,250.053 215.152,252.049 215.586,256.706 216.020,253.380 216.454,262.694 216.888,264.024 217.322,262.694 217.756,262.694 218.190,262.694 218.624,264.690 219.058,268.016 219.492,268.682 219.926,265.355 220.360,263.359 220.794,263.359 221.228,270.012 221.662,269.347 222.096,274.004 222.530,266.020 222.964,261.363 223.398,258.702 223.832,262.029 224.266,258.037 224.700,262.029 225.134,272.008 225.568,275.335 226.002,270.678 226.436,270.678 226.870,266.020 227.304,263.359 227.738,256.041 228.172,252.714 228.606,248.057 229.040,252.714 229.474,254.045 229.908,250.718 230.342,250.718 230.776,248.057 231.210,243.400 231.644,248.722 232.078,245.396 232.512,246.061 232.946,244.065 233.380,246.061 233.814,242.069 234.248,240.739 234.682,240.739 235.116,246.061 235.550,248.722 235.984,254.045 236.418,256.041 236.852,258.037 237.286,257.371 237.720,254.045 238.154,248.722 238.588,241.404 239.022,240.073 239.456,232.755 239.890,238.078 240.324,239.408 240.758,243.400 241.192,249.388 241.626,254.710 242.060,249.388 242.494,248.722 242.928,248.057 243.362,241.404 243.796,232.755 244.230,228.763 244.664,221.445 245.098,220.114 245.532,216.788 245.966,219.449 246.400,215.457 246.834,215.457 247.268,214.127 247.702,213.461 248.136,214.792 248.570,219.449 249.004,223.441 249.438,218.118 249.872,211.465 250.306,203.482 250.740,194.167 251.174,198.824 251.608,195.498 252.042,190.176 252.476,190.841 252.910,200.820 253.344,197.494 253.778,202.151 254.212,199.490 254.646,200.155 255.080,198.824 255.514,200.155 255.948,204.812 256.382,210.800 256.816,219.449 257.250,220.114 257.684,216.788 258.118,207.473 258.552,206.143 258.986,212.796 259.420,220.780 259.854,228.763 260.288,233.420 260.722,241.404 261.156,248.057 261.590,253.380 262.024,251.384 262.458,252.049 262.892,249.388 263.326,250.718 263.760,258.037 264.194,256.706 264.628,262.029 265.062,264.690 265.496,261.363 265.930,250.718 266.364,250.718 266.798,250.718 267.232,254.045 267.666,258.702 268.100,255.376 268.534,251.384 268.968,250.718 269.402,247.392 269.836,242.735 270.270,236.747 270.704,234.086 271.138,234.086 271.572,243.400 272.006,245.396 272.440,248.057 272.874,248.722 273.308,256.041 273.742,253.380 274.176,250.053 274.610,248.057 275.044,252.049 275.478,250.053 275.912,256.041 276.346,259.367 276.780,264.690 277.214,266.020 277.648,264.690 278.082,263.359 278.516,263.359 278.950,262.029 279.384,265.355 279.818,265.355 280.252,256.041 280.686,242.735 281.120,244.065 281.554,246.061 281.988,244.065 282.422,242.735 282.856,248.057 283.290,250.053 283.724,254.710 284.158,257.371 284.592,264.024 285.026,257.371 285.460,256.041 285.894,252.714 286.328,247.392 286.762,252.714 287.196,248.057 287.630,244.731 288.064,248.057 288.498,246.727 288.932,246.061 289.366,256.706 289.800,264.024 290.234,263.359 290.668,258.702 291.102,257.371 291.536,256.706 291.970,251.384 292.404,252.049 292.838,254.710 293.272,250.053 293.706,248.057 294.140,251.384 294.574,246.061 295.008,238.078 295.442,242.735 295.876,241.404 296.310,242.069 296.744,248.057 297.178,248.057 297.612,254.045 298.046,254.710 298.480,252.714 298.914,256.706 299.348,259.367 299.782,260.698 300.216,256.706 300.650,252.049 301.084,257.371 301.518,260.033 301.952,252.049 302.386,252.714 302.820,251.384 303.254,256.041 303.688,264.690 304.122,272.673 304.556,270.678 304.990,269.347 305.424,270.678 305.858,264.024 306.292,259.367 306.726,256.706 307.160,261.363 307.594,264.690 308.028,260.033 308.462,260.698 308.896,262.694 309.330,258.702 309.764,260.033 310.198,252.049 310.632,244.731 311.066,248.057 311.500,250.053 311.934,250.718 312.368,252.714 312.802,252.049 313.236,256.041 313.670,260.698 314.104,266.686 314.538,274.004 314.972,274.669 315.406,269.347 315.840,265.355 316.274,252.714 316.708,240.739 317.142,242.735 317.576,240.739 318.010,240.739 318.444,250.718 318.878,251.384 319.312,254.710 319.746,261.363 320.180,255.376 320.614,256.041 321.048,254.045 321.482,244.731 321.916,241.404 322.350,241.404 322.784,239.408 323.218,235.416 323.652,232.755 324.086,230.094 324.520,236.082 324.954,236.747 325.388,242.069 325.822,240.073 326.256,235.416 326.690,233.420 327.124,231.424 327.558,230.759 327.992,232.755 328.426,232.755 328.860,228.763 329.294,234.086 329.728,236.747 330.162,240.073 330.596,244.731 331.030,246.727 331.464,248.057 331.898,246.727 332.332,246.061 332.766,246.727 333.200,251.384 333.634,249.388 334.068,249.388 334.502,254.045 334.936,261.363 335.370,260.698 335.804,263.359 336.238,260.698 336.672,255.376 337.106,254.710 337.540,253.380 337.974,250.718 338.408,249.388 338.842,251.384 339.276,248.722 339.710,247.392 340.144,245.396 340.578,242.069 341.012,245.396 341.446,246.727 341.880,246.727 342.314,246.727 342.748,252.714 343.182,254.045 343.616,254.045 344.050,258.702 344.484,265.355 344.918,267.351 345.352,270.012 345.786,274.669 346.220,273.339 346.654,273.339 347.088,272.008 347.522,272.008 347.956,272.673 348.390,274.669 348.824,270.678 349.258,268.016 349.692,268.682 350.126,261.363 350.560,257.371 350.994,246.727 351.428,248.722 351.862,243.400 352.296,248.057 352.730,245.396 353.164,242.069 353.598,240.739 354.032,241.404 354.466,244.065 354.900,246.727 355.334,252.049 355.768,258.037 356.202,265.355 356.636,264.690 357.070,263.359 357.504,265.355 357.938,268.682 358.372,272.008 358.806,273.339 359.240,277.996 359.674,279.992 360.108,281.988 360.542,277.331 360.976,279.992 361.410,267.351 361.844,272.673 362.278,274.004 362.712,266.020 363.146,258.037 363.580,253.380 364.014,246.061 364.448,245.396 364.882,244.731 365.316,242.069 365.750,248.057 366.184,247.392 366.618,245.396 367.052,248.057 367.486,249.388 367.920,248.722 368.354,252.714 368.788,250.718 369.222,254.045 369.656,253.380 370.090,257.371 370.524,266.686 370.958,262.029 371.392,261.363 371.826,266.686 372.260,267.351 372.694,260.698 373.128,260.033 373.562,252.049 373.996,240.739 374.430,245.396 374.864,234.751 375.298,229.429 375.732,230.094 376.166,231.424 376.600,232.090 377.034,232.090 377.468,229.429 377.902,234.751 378.336,232.755 378.770,235.416 379.204,227.433 379.638,230.759 380.072,231.424 380.506,233.420 380.940,237.412 381.374,243.400 381.808,253.380 382.242,256.706 382.676,259.367 383.110,264.690 383.544,258.037 383.978,266.686 384.412,270.012 384.846,274.669 385.280,268.682 385.714,266.020 386.148,260.033 386.582,264.024 387.016,260.698 387.450,264.024 387.884,269.347 388.318,274.669 388.752,272.673 389.186,269.347 389.620,264.024 390.054,260.698 390.488,256.706 390.922,259.367 391.356,264.690 391.790,266.020 392.224,272.673 392.658,272.673 393.092,272.673 393.526,268.682 393.960,260.698 394.394,267.351 394.828,267.351 395.262,271.343 395.696,265.355 396.130,268.682 396.564,266.020 396.998,260.698 397.432,259.367 397.866,256.706 398.300,258.037 398.734,261.363 399.168,266.020 399.602,263.359 400.036,257.371 400.470,250.718 400.904,246.727 401.338,240.739 401.772,241.404 402.206,242.735 402.640,244.731 403.074,250.053 403.508,244.065 403.942,243.400 404.376,241.404 404.810,238.078 405.244,237.412 405.678,245.396 406.112,242.735 406.546,243.400 406.980,244.731 407.414,246.727 407.848,244.731 408.282,238.743 408.716,240.073 409.150,242.735 409.584,244.065 410.018,248.057 410.452,251.384 410.886,251.384 411.320,247.392 411.754,250.053 412.188,246.727 412.622,249.388 413.056,248.722 413.490,250.718 413.924,255.376 414.358,249.388 414.792,247.392 415.226,244.065 415.660,238.078 416.094,242.735 416.528,242.069 416.962,244.065 417.396,250.053 417.830,253.380 418.264,249.388 418.698,250.718 419.132,255.376 419.566,252.714 420.000,248.722 420.434,250.053 420.868,251.384 421.302,256.041 421.736,258.702 422.170,262.029 422.604,260.033 423.038,260.033 423.472,258.702 423.906,254.710 424.340,265.355 424.774,272.673 425.208,272.673 425.642,272.008 426.076,275.335 426.510,274.004 426.944,272.673 427.378,270.678 427.812,270.012 428.246,266.020 428.680,272.008 429.114,272.673 429.548,265.355 429.982,263.359 430.416,260.033 430.850,262.694 431.284,264.690 431.718,268.682 432.152,266.020 432.586,270.012 433.020,272.008 433.454,268.682 433.888,266.686 434.322,263.359 434.756,262.029 435.190,258.702 435.624,257.371 436.058,260.698 436.492,263.359 436.926,266.020 437.360,259.367 437.794,256.706 438.228,259.367 438.662,262.694 439.096,266.020 439.530,266.020 439.964,260.033 440.398,255.376 440.832,250.718 441.266,248.057 441.700,247.392 442.134,250.718 442.568,249.388 443.002,254.710 443.436,254.045 443.870,252.049 444.304,252.049 444.738,249.388 445.172,241.404 445.606,240.073 446.040,234.086 446.474,236.082 446.908,236.747 447.342,236.747 447.776,240.073 448.210,240.739 448.644,239.408 449.078,242.069 449.512,246.061 449.946,250.718 450.380,254.045 450.814,252.714 451.248,253.380 451.682,249.388 452.116,239.408 452.550,227.433 452.984,230.094 453.418,227.433 453.852,227.433 454.286,230.759 454.720,238.078 455.154,243.400 455.588,252.714 456.022,248.722 456.456,252.049 456.890,250.053 457.324,246.727 457.758,246.727 458.192,245.396 458.626,238.078 459.060,235.416 459.494,235.416 459.928,239.408 460.362,229.429 460.796,225.437 461.230,225.437 461.664,233.420 462.098,230.759 462.532,226.102 462.966,220.114 463.400,220.780 463.834,216.122 464.268,213.461 464.702,211.465 465.136,214.127 465.570,212.131 466.004,217.453 466.438,220.114 466.872,220.114 467.306,221.445 467.740,218.118 468.174,210.135 468.608,198.159 469.042,192.171 469.476,197.494 469.910,206.143 470.344,212.796 470.778,219.449 471.212,216.122 471.646,218.784 472.080,224.771 472.514,216.788 472.948,218.784 473.382,216.788 473.816,216.788 474.250,215.457 474.684,218.118 475.118,210.800 475.552,208.804 475.986,208.139 476.420,202.816 476.854,202.816 477.288,203.482 477.722,214.127 478.156,220.114 478.590,220.780 479.024,220.114 479.458,212.796 479.892,210.135 480.326,214.792 480.760,211.465 481.194,216.122 481.628,224.771 482.062,219.449 482.496,215.457 482.930,212.796 483.364,214.792 483.798,215.457 484.232,222.776 484.666,223.441 485.100,222.110 485.534,223.441 485.968,227.433 486.402,228.098 486.836,227.433 487.270,223.441 487.704,224.771 488.138,220.114 488.572,226.102 489.006,225.437 489.440,229.429 489.874,240.739 490.308,243.400 490.742,246.061 491.176,251.384 491.610,258.702 492.044,259.367 492.478,260.033 492.912,254.710 493.346,246.061 493.780,238.078 494.214,239.408 494.648,241.404 495.082,240.739 495.516,241.404 495.950,244.065 496.384,246.061 496.818,246.727 497.252,254.045 497.686,254.045 498.120,252.049 498.554,250.718 498.988,245.396 499.422,244.065 499.856,244.731 500.290,246.061 500.724,248.722 501.158,248.057 501.592,231.424 502.026,227.433 502.460,225.437 502.894,231.144 503.328,233.264 503.762,238.743 504.196,235.160 504.630,225.195 505.064,223.219 505.498,206.143 505.932,158.640 506.366,61.771 506.800,94.371 "/>
<g>
</g>
</g>
<g id="ID000005" >
  <g transform="translate(289.300,408.822)">
    <g transform="rotate(-0.0)">
      <text x="0.000" y="0.000" font-family="Helvetica" text-anchor="middle" font-size="10pt" fill="#000000" >Time</text>
    </g>
  </g>
</g>
<g id="ID000006" >
  <g transform="translate(28.800,204.151)">
    <g transform="rotate(-90.0)">
      <text x="0.000" y="0.000" font-family="Helvetica" text-anchor="middle" font-size="10pt" fill="#000000" >Error in %</text>
    </g>
  </g>
</g>
<g id="ID000007" >
  <g transform="translate(289.300,21.493)">
    <g transform="rotate(-0.0)">
      <text x="0.000" y="0.000" font-family="Helvetica" text-anchor="middle" font-size="10pt" fill="#000000" >Link Prediction Errors in Connectivity Graph</text>
    </g>
  </g>
</g>
<g id="ID000008" >
</g>
<g id="ID000009" >
</g>
    </g>
    <g>
      <polyline fill="none" stroke="#000000" stroke-width="0.5pt" stroke-dasharray="none" points="72.800,373.800 72.800,369.460 "/>
      <polyline fill="none" stroke="#000000" stroke-width="0.5pt" stroke-dasharray="none" points="116.200,373.800 116.200,369.460 "/>
      <polyline fill="none" stroke="#000000" stroke-width="0.5pt" stroke-dasharray="none" points="159.600,373.800 159.600,369.460 "/>
      <polyline fill="none" stroke="#000000" stroke-width="0.5pt" stroke-dasharray="none" points="203.000,373.800 203.000,369.460 "/>
      <polyline fill="none" stroke="#000000" stroke-width="0.5pt" stroke-dasharray="none" points="246.400,373.800 246.400,369.460 "/>
      <polyline fill="none" stroke="#000000" stroke-width="0.5pt" stroke-dasharray="none" points="289.800,373.800 289.800,369.460 "/>
      <polyline fill="none" stroke="#000000" stroke-width="0.5pt" stroke-dasharray="none" points="333.200,373.800 333.200,369.460 "/>
      <polyline fill="none" stroke="#000000" stroke-width="0.5pt" stroke-dasharray="none" points="376.600,373.800 376.600,369.460 "/>
      <polyline fill="none" stroke="#000000" stroke-width="0.5pt" stroke-dasharray="none" points="420.000,373.800 420.000,369.460 "/>
      <polyline fill="none" stroke="#000000" stroke-width="0.5pt" stroke-dasharray="none" points="463.400,373.800 463.400,369.460 "/>
      <polyline fill="none" stroke="#000000" stroke-width="0.5pt" stroke-dasharray="none" points="506.800,373.800 506.800,369.460 "/>
      <polyline fill="none" stroke="#000000" stroke-width="0.5pt" stroke-dasharray="none" points="72.800,373.800 506.800,373.800 "/>
  <g transform="translate(72.800,392.446)">
    <g transform="rotate(-0.0)">
      <text x="0.000" y="0.000" font-family="Helvetica" text-anchor="middle" font-size="10pt" fill="#000000" >0</text>
    </g>
  </g>
  <g transform="translate(116.200,392.446)">
    <g transform="rotate(-0.0)">
      <text x="0.000" y="0.000" font-family="Helvetica" text-anchor="middle" font-size="10pt" fill="#000000" >100</text>
    </g>
  </g>
  <g transform="translate(159.600,392.446)">
    <g transform="rotate(-0.0)">
      <text x="0.000" y="0.000" font-family="Helvetica" text-anchor="middle" font-size="10pt" fill="#000000" >200</text>
    </g>
  </g>
  <g transform="translate(203.000,392.446)">
    <g transform="rotate(-0.0)">
      <text x="0.000" y="0.000" font-family="Helvetica" text-anchor="middle" font-size="10pt" fill="#000000" >300</text>
    </g>
  </g>
  <g transform="translate(246.400,392.446)">
    <g transform="rotate(-0.0)">
      <text x="0.000" y="0.000" font-family="Helvetica" text-anchor="middle" font-size="10pt" fill="#000000" >400</text>
    </g>
  </g>
  <g transform="translate(289.800,392.446)">
    <g transform="rotate(-0.0)">
      <text x="0.000" y="0.000" font-family="Helvetica" text-anchor="middle" font-size="10pt" fill="#000000" >500</text>
    </g>
  </g>
  <g transform="translate(333.200,392.446)">
    <g transform="rotate(-0.0)">
      <text x="0.000" y="0.000" font-family="Helvetica" text-anchor="middle" font-size="10pt" fill="#000000" >600</text>
    </g>
  </g>
  <g transform="translate(376.600,392.446)">
    <g transform="rotate(-0.0)">
      <text x="0.000" y="0.000" font-family="Helvetica" text-anchor="middle" font-size="10pt" fill="#000000" >700</text>
    </g>
  </g>
  <g transform="translate(420.000,392.446)">
    <g transform="rotate(-0.0)">
      <text x="0.000" y="0.000" font-family="Helvetica" text-anchor="middle" font-size="10pt" fill="#000000" >800</text>
    </g>
  </g>
  <g transform="translate(463.400,392.446)">
    <g transform="rotate(-0.0)">
      <text x="0.000" y="0.000" font-family="Helvetica" text-anchor="middle" font-size="10pt" fill="#000000" >900</text>
    </g>
  </g>
  <g transform="translate(506.800,392.446)">
    <g transform="rotate(-0.0)">
      <text x="0.000" y="0.000" font-family="Helvetica" text-anchor="middle" font-size="10pt" fill="#000000" >1000</text>
    </g>
  </g>
      <polyline fill="none" stroke="#000000" stroke-width="0.5pt" stroke-dasharray="none" points="72.800,373.800 77.140,373.800 "/>
      <polyline fill="none" stroke="#000000" stroke-width="0.5pt" stroke-dasharray="none" points="72.800,331.013 77.140,331.013 "/>
      <polyline fill="none" stroke="#000000" stroke-width="0.5pt" stroke-dasharray="none" points="72.800,288.225 77.140,288.225 "/>
      <polyline fill="none" stroke="#000000" stroke-width="0.5pt" stroke-dasharray="none" points="72.800,245.438 77.140,245.438 "/>
      <polyline fill="none" stroke="#000000" stroke-width="0.5pt" stroke-dasharray="none" points="72.800,202.650 77.140,202.650 "/>
      <polyline fill="none" stroke="#000000" stroke-width="0.5pt" stroke-dasharray="none" points="72.800,159.863 77.140,159.863 "/>
      <polyline fill="none" stroke="#000000" stroke-width="0.5pt" stroke-dasharray="none" points="72.800,117.075 77.140,117.075 "/>
      <polyline fill="none" stroke="#000000" stroke-width="0.5pt" stroke-dasharray="none" points="72.800,74.288 77.140,74.288 "/>
      <polyline fill="none" stroke="#000000" stroke-width="0.5pt" stroke-dasharray="none" points="72.800,31.500 77.140,31.500 "/>
      <polyline fill="none" stroke="#000000" stroke-width="0.5pt" stroke-dasharray="none" points="72.800,373.800 72.800,31.500 "/>
  <g transform="translate(64.120,378.300)">
    <g transform="rotate(-0.0)">
      <text x="0.000" y="0.000" font-family="Helvetica" text-anchor="end" font-size="10pt" fill="#000000" >0</text>
    </g>
  </g>
  <g transform="translate(64.120,335.513)">
    <g transform="rotate(-0.0)">
      <text x="0.000" y="0.000" font-family="Helvetica" text-anchor="end" font-size="10pt" fill="#000000" >0.005</text>
    </g>
  </g>
  <g transform="translate(64.120,292.725)">
    <g transform="rotate(-0.0)">
      <text x="0.000" y="0.000" font-family="Helvetica" text-anchor="end" font-size="10pt" fill="#000000" >0.01</text>
    </g>
  </g>
  <g transform="translate(64.120,249.938)">
    <g transform="rotate(-0.0)">
      <text x="0.000" y="0.000" font-family="Helvetica" text-anchor="end" font-size="10pt" fill="#000000" >0.015</text>
    </g>
  </g>
  <g transform="translate(64.120,207.150)">
    <g transform="rotate(-0.0)">
      <text x="0.000" y="0.000" font-family="Helvetica" text-anchor="end" font-size="10pt" fill="#000000" >0.02</text>
    </g>
  </g>
  <g transform="translate(64.120,164.363)">
    <g transform="rotate(-0.0)">
      <text x="0.000" y="0.000" font-family="Helvetica" text-anchor="end" font-size="10pt" fill="#000000" >0.025</text>
    </g>
  </g>
  <g transform="translate(64.120,121.575)">
    <g transform="rotate(-0.0)">
      <text x="0.000" y="0.000" font-family="Helvetica" text-anchor="end" font-size="10pt" fill="#000000" >0.03</text>
    </g>
  </g>
  <g transform="translate(64.120,78.788)">
    <g transform="rotate(-0.0)">
      <text x="0.000" y="0.000" font-family="Helvetica" text-anchor="end" font-size="10pt" fill="#000000" >0.035</text>
    </g>
  </g>
  <g transform="translate(64.120,36.000)">
    <g transform="rotate(-0.0)">
      <text x="0.000" y="0.000" font-family="Helvetica" text-anchor="end" font-size="10pt" fill="#000000" >0.04</text>
    </g>
  </g>
      <polyline fill="none" stroke="#000000" stroke-width="0.5pt" stroke-dasharray="none" points="72.800,373.800 72.800,370.377 "/>
      <polyline fill="none" stroke="#000000" stroke-width="0.5pt" stroke-dasharray="none" points="72.800,373.800 72.800,370.377 "/>
      <polyline fill="none" stroke="#000000" stroke-width="0.5pt" stroke-dasharray="none" points="72.800,373.800 72.800,370.377 "/>
      <polyline fill="none" stroke="#000000" stroke-width="0.5pt" stroke-dasharray="none" points="72.800,373.800 72.800,373.800 "/>
    </g>
  </g>
  <g id ="ID000010">
  <clipPath id="ID000011">
    <rect x="356.250" y="34.250" width="145.500" height="66.250"/>
  </clipPath>
      <polygon fill="#ffffff" fill-opacity="1.00" stroke="none" stroke-width="0.5pt" stroke-opacity="1.00" stroke-dasharray="none" points="356.250,100.500 501.750,100.500 501.750,34.250 356.250,34.250 "/>
      <polygon fill="#ffffff" fill-opacity="1.00" stroke="none" stroke-width="0.5pt" stroke-opacity="1.00" stroke-dasharray="none" points="356.250,34.250 501.750,34.250 501.750,34.250 356.250,34.250 "/>
      <polygon fill="#ffffff" fill-opacity="1.00" stroke="none" stroke-width="0.5pt" stroke-opacity="1.00" stroke-dasharray="none" points="356.250,100.500 356.250,100.500 356.250,34.250 356.250,34.250 "/>
    <g>
<g id="ID000012" >
  <g transform="translate(405.580,52.099)">
    <g transform="rotate(-0.0)">
      <text x="0.000" y="0.000" font-family="Helvetica" text-anchor="start" font-size="10pt" fill="#000000" >Missing Links</text>
    </g>
  </g>
</g>
<g id="ID000013" clip-path="url(#ID000011)" >
      <polyline fill="none" stroke="#ff0000" stroke-width="0.5pt" stroke-dasharray="none" points="363.750,46.750 401.250,46.750 "/>
<g>
</g>
</g>
<g id="ID000014" clip-path="url(#ID000011)" >
<g>
</g>
</g>
<g id="ID000015" >
  <g transform="translate(405.580,72.864)">
    <g transform="rotate(-0.0)">
      <text x="0.000" y="0.000" font-family="Helvetica" text-anchor="start" font-size="10pt" fill="#000000" >Extra Links</text>
    </g>
  </g>
</g>
<g id="ID000016" clip-path="url(#ID000011)" >
      <polyline fill="none" stroke="#0000ff" stroke-width="0.5pt" stroke-dasharray="none" points="363.750,67.375 401.250,67.375 "/>
<g>
</g>
</g>
<g id="ID000017" clip-path="url(#ID000011)" >
<g>
</g>
</g>
<g id="ID000018" >
  <g transform="translate(405.580,93.629)">
    <g transform="rotate(-0.0)">
      <text x="0.000" y="0.000" font-family="Helvetica" text-anchor="start" font-size="10pt" fill="#000000" >Total Link Errors</text>
    </g>
  </g>
</g>
<g id="ID000019" clip-path="url(#ID000011)" >
      <polyline fill="none" stroke="#000000" stroke-width="0.5pt" stroke-dasharray="none" points="363.750,88.000 401.250,88.000 "/>
<g>
</g>
</g>
<g id="ID000020" clip-path="url(#ID000011)" >
<g>
</g>
</g>
<g id="ID000021" >
</g>
<g id="ID000022" >
</g>
<g id="ID000023" >
</g>
    </g>
    <g>
      <polyline fill="none" stroke="#000000" stroke-width="0.5pt" stroke-dasharray="none" points="356.250,100.500 501.750,100.500 "/>
      <polyline fill="none" stroke="#000000" stroke-width="0.5pt" stroke-dasharray="none" points="356.250,34.250 501.750,34.250 "/>
      <polyline fill="none" stroke="#000000" stroke-width="0.5pt" stroke-dasharray="none" points="356.250,100.500 356.250,34.250 "/>
      <polyline fill="none" stroke="#000000" stroke-width="0.5pt" stroke-dasharray="none" points="501.750,100.500 501.750,34.250 "/>
      <polyline fill="none" stroke="#000000" stroke-width="0.5pt" stroke-dasharray="none" points="356.250,100.500 356.250,99.838 "/>
      <polyline fill="none" stroke="#000000" stroke-width="0.5pt" stroke-dasharray="none" points="356.250,100.500 356.250,100.500 "/>
    </g>
  </g>
  </g>
</svg>
